<?xml version="1.0" encoding="UTF-8"?>
<!-- Generator: visioncortex VTracer -->
<svg id="svg" version="1.1" xmlns="http://www.w3.org/2000/svg" style="display: block;" viewBox="0 0 1440 810"><path d="M0 0 C475.2 0 950.4 0 1440 0 C1440 267.3 1440 534.6 1440 810 C964.8 810 489.6 810 0 810 C0 542.7 0 275.4 0 0 Z " transform="translate(0,0)" style="fill: #FEFEFE;"/><path d="M0 0 C475.2 0 950.4 0 1440 0 C1440 337 1440 337 1354 423 C1350.7323993 421.36619965 1349.24623204 420.49226042 1346.82714844 418.03833008 C1346.23262878 417.44043167 1345.63810913 416.84253326 1345.02557373 416.22651672 C1344.39322815 415.58071152 1343.76088257 414.93490631 1343.109375 414.26953125 C1342.44593079 413.60088547 1341.78248657 412.93223969 1341.09893799 412.24333191 C1338.97781594 410.10441918 1336.86347832 407.9589638 1334.75 405.8125 C1332.65000293 403.68471241 1330.54850868 401.55846171 1328.44390869 399.43522644 C1327.13647456 398.11572591 1325.83171857 396.79356395 1324.5302124 395.46821594 C1321.46790529 392.37296741 1318.35821552 389.40063391 1315.05957031 386.55737305 C1310.70711472 382.79963824 1306.66605945 378.7750655 1302.625 374.6875 C1301.85623535 373.91494873 1301.0874707 373.14239746 1300.29541016 372.34643555 C1297.0414017 369.07623964 1293.79343734 365.8000651 1290.54492188 362.52441406 C1288.15704648 360.11834715 1285.76609207 357.71536962 1283.375 355.3125 C1282.65393066 354.58313232 1281.93286133 353.85376465 1281.18994141 353.10229492 C1277.15513921 349.04829722 1273.0234456 345.1792836 1268.68139648 341.45530701 C1265.61867666 338.80441671 1262.83193363 335.89093225 1260 333 C1254.21471338 337.80047448 1248.91620747 342.96878434 1243.62890625 348.30859375 C1242.74774643 349.19354019 1241.86658661 350.07848663 1240.95872498 350.99024963 C1237.68511716 354.27805911 1234.41604899 357.57036077 1231.14733887 360.86303711 C1227.93570544 364.09772785 1224.72017787 367.32851579 1221.50390625 370.55859375 C1220.67033096 371.40046738 1219.83675568 372.242341 1218.97792053 373.10972595 C1214.77562749 377.32942144 1210.49805659 381.36157622 1205.98350525 385.24357605 C1202.28140821 388.52183907 1198.82705407 392.0511954 1195.34375 395.55859375 C1194.16214294 396.74232323 1194.16214294 396.74232323 1192.95666504 397.94996643 C1190.46872898 400.44345012 1187.98431376 402.94040784 1185.5 405.4375 C1183.8023159 407.14020587 1182.10440142 408.84268207 1180.40625 410.54492188 C1176.2681672 414.69396412 1172.13296065 418.84585576 1168 423 C1164.00053011 419.63226198 1160.11155465 416.23415944 1156.44140625 412.50390625 C1155.64283203 411.69759766 1154.84425781 410.89128906 1154.02148438 410.06054688 C1152.38603669 408.39911908 1150.75061987 406.73766089 1149.11523438 405.07617188 C1148.31537109 404.26857422 1147.51550781 403.46097656 1146.69140625 402.62890625 C1145.98185791 401.90775635 1145.27230957 401.18660645 1144.54125977 400.44360352 C1142.58261198 398.5602232 1140.60958125 396.80291196 1138.54418945 395.04418945 C1132.91864228 390.15552394 1127.72301772 384.83402393 1122.47392654 379.54909134 C1120.56807562 377.63034912 1118.65900608 375.71486061 1116.74911499 373.80014038 C1112.70490658 369.74458102 1108.66467954 365.68506984 1104.625 361.625 C1099.92075062 356.89714048 1095.21487867 352.17091945 1090.5048027 347.44886398 C1088.62262054 345.56019313 1086.74346873 343.66854199 1084.8644104 341.77676392 C1083.7178594 340.62658277 1082.57116912 339.47654046 1081.42431641 338.32666016 C1080.90173248 337.79890991 1080.37914856 337.27115967 1079.84072876 336.72741699 C1077.1770747 334.02439943 1077.1770747 334.02439943 1074 332 C1073.67 332.99 1073.34 333.98 1073 335 C1071.50061035 336.47814941 1071.50061035 336.47814941 1069.55664062 338.07226562 C1064.46154698 342.39882243 1059.79549403 347.09737396 1055.09375 351.84375 C1053.68137068 353.2619165 1052.26898839 354.68008007 1050.85643768 356.09807587 C1048.40212499 358.56323132 1045.95115467 361.03170509 1043.5 363.5 C1040.57062797 366.44985631 1037.64063715 369.39907839 1034.70666504 372.34436035 C1032.88779387 374.17068429 1031.07117348 375.99925361 1029.25720215 377.83044434 C1024.9287813 382.17599917 1020.53192733 386.34031888 1015.87988281 390.33605957 C1012.6906053 393.15898436 1009.75537108 396.22036841 1006.796875 399.28125 C1005.47454768 400.63078605 1004.15161394 401.97972814 1002.828125 403.328125 C1000.7725668 405.42720801 998.7211899 407.52981574 996.6796875 409.64257812 C994.68834609 411.70017139 992.68174395 413.7417731 990.671875 415.78125 C990.0614032 416.42066528 989.4509314 417.06008057 988.82196045 417.71887207 C987.08105469 419.47070313 987.08105469 419.47070313 984 422 C979.3674212 421.58286268 976.83565731 418.19434214 973.765625 415.0234375 C973.16876892 414.4199649 972.57191284 413.81649231 971.95697021 413.19473267 C970.04741783 411.26178974 968.14827073 409.31901799 966.25 407.375 C963.75902214 404.83737223 961.26374053 402.30403817 958.765625 399.7734375 C958.16258545 399.16171692 957.5595459 398.54999634 956.93823242 397.91973877 C953.41830959 394.36848818 949.81661174 391.00357236 945.99902344 387.77197266 C940.74686373 383.11635771 935.91858056 377.96503167 930.99072266 372.97021484 C924.19622899 366.04728684 924.19622899 366.04728684 917.0234375 359.5234375 C911.40789082 354.72700497 906.30889243 349.37727292 901.125 344.125 C899.06798047 342.04139745 897.00766016 339.96113977 894.9453125 337.8828125 C894.04312988 336.96902832 893.14094727 336.05524414 892.21142578 335.11376953 C890.18662739 332.97050834 890.18662739 332.97050834 888 332 C887.78601563 332.54011719 887.57203125 333.08023437 887.3515625 333.63671875 C885.51341523 336.85082019 883.00200241 339.24742445 880.375 341.8125 C879.87871094 342.30814453 879.38242187 342.80378906 878.87109375 343.31445312 C876.07694239 346.07661038 873.20470796 348.7096558 870.22593689 351.27165222 C866.35201117 354.65099855 862.67682078 358.1812707 859.04907227 361.8215332 C858.0841259 362.78385109 858.0841259 362.78385109 857.09968567 363.76560974 C855.00275991 365.85818191 852.90945645 367.9543332 850.81640625 370.05078125 C849.35064542 371.51586767 847.88473624 372.98080568 846.41868591 374.44560242 C843.36188852 377.50093208 840.30689101 380.55804692 837.25317383 383.61645508 C833.3334451 387.54191097 829.40920304 391.46281953 825.48362827 395.38242817 C822.46305434 398.39939731 819.44485531 401.41873321 816.42738152 404.43880272 C814.98038117 405.88647099 813.53263528 407.33339446 812.08413887 408.77956581 C810.06872352 410.79245275 808.05652238 412.80849773 806.04516602 414.82543945 C805.44418091 415.42440033 804.8431958 416.02336121 804.22399902 416.64047241 C801.24780258 419.54410492 801.24780258 419.54410492 799 423 C795.56267063 421.52011778 793.34920327 419.58715467 790.72558594 416.93676758 C789.89081726 416.09862015 789.05604858 415.26047272 788.19598389 414.39692688 C787.30115295 413.48863632 786.40632202 412.58034576 785.484375 411.64453125 C784.06330239 410.21550872 782.64222705 408.7864889 781.22099686 407.3576231 C779.23043846 405.35394015 777.2444481 403.34575947 775.25848389 401.33752441 C771.32691892 397.36284983 767.3887785 393.39472299 763.44709015 389.43008995 C762.08219155 388.05510869 760.72094662 386.67650359 759.35980225 385.29780579 C755.02867534 380.93329798 750.63375896 376.75545151 745.96893311 372.75175476 C742.21910844 369.41554533 738.76440132 365.78281937 735.265625 362.1875 C733.62429042 360.5189482 731.98234587 358.85099624 730.33984375 357.18359375 C727.77730315 354.57756162 725.21884773 351.96797502 722.67041016 349.34814453 C720.19258185 346.80407678 717.69943796 344.27591451 715.203125 341.75 C714.43953674 340.95746826 713.67594849 340.16493652 712.88922119 339.34838867 C712.17457703 338.63013916 711.45993286 337.91188965 710.72363281 337.171875 C709.7871994 336.2142627 709.7871994 336.2142627 708.83184814 335.23730469 C707.07085272 333.76321387 707.07085272 333.76321387 704.86981201 334.21533203 C702.59697006 335.16913181 701.42033347 336.31682348 699.75 338.125 C697.40497857 340.64415669 694.9529515 342.92372106 692.34359741 345.16200256 C688.16364475 348.80721662 684.23101149 352.64738819 680.33056641 356.58764648 C679.61084656 357.31043289 678.89112671 358.0332193 678.14959717 358.77790833 C676.60222788 360.33238009 675.05599038 361.88797916 673.51079178 363.44460869 C671.06760399 365.90529548 668.62079463 368.36232769 666.17294312 370.81837463 C659.21924049 377.79645108 652.27132605 384.7802705 645.32763672 391.76831055 C641.06920016 396.05344188 636.80597638 400.33376101 632.53971481 404.61110115 C630.91504937 406.2419905 629.29228585 407.87477673 627.67143631 409.50945854 C625.4164627 411.78352682 623.15550839 414.05148068 620.89306641 416.31811523 C620.22087067 416.99907257 619.54867493 417.68002991 618.85610962 418.38162231 C618.24227417 418.99415359 617.62843872 419.60668488 616.9960022 420.23777771 C616.46253489 420.77438743 615.92906757 421.31099714 615.37943459 421.86386776 C614 423 614 423 612 423 C610.27031235 421.37477129 608.63827107 419.71469179 607 418 C605.72345659 416.71316344 604.44416396 415.42905102 603.1628418 414.14697266 C602.09098885 413.07027817 602.09098885 413.07027817 600.9974823 411.97183228 C597.7515398 408.7124637 594.50291424 405.45577489 591.25415039 402.19921875 C589.54751789 400.48755385 587.8417835 398.77499299 586.13696289 397.06152344 C583.66011473 394.57246462 581.17997928 392.08672129 578.69921875 389.6015625 C577.94686447 388.84404694 577.19451019 388.08653137 576.4193573 387.30606079 C572.38712231 383.27340516 568.25928272 379.43902103 563.94026184 375.71664429 C560.65178819 372.80717126 557.58335846 369.68624324 554.5 366.5625 C553.82001953 365.87873291 553.14003906 365.19496582 552.43945312 364.49047852 C549.56774857 361.60262227 546.70211562 358.70876925 543.8359375 355.81542969 C541.72607213 353.68734275 539.61310355 351.56237083 537.5 349.4375 C536.54963867 348.47469116 536.54963867 348.47469116 535.58007812 347.49243164 C530.3974747 342.28195745 525.12968913 337.08645942 519 333 C518.55015873 333.45445024 518.10031746 333.90890047 517.63684464 334.37712193 C506.70086788 345.42342036 495.75117404 356.45590571 484.785923 367.47313786 C479.48358237 372.80128298 474.18602847 378.13403029 468.89941406 383.4777832 C464.29270237 388.13426115 459.67732993 392.78194473 455.05125403 397.41918844 C452.60103623 399.87593651 450.15544165 402.33692548 447.72016144 404.80848885 C445.00438335 407.56440027 442.2693123 410.3006414 439.53222656 413.03540039 C438.72374268 413.86186066 437.91525879 414.68832092 437.08227539 415.53982544 C436.33633118 416.27889633 435.59038696 417.01796722 434.82183838 417.7794342 C434.17658329 418.42929826 433.5313282 419.07916231 432.86651993 419.74871922 C431 421 431 421 428.85664368 420.77466679 C426.75899862 419.89944448 425.59902212 418.95560886 424.01074219 417.33544922 C423.45626404 416.77751678 422.90178589 416.21958435 422.33050537 415.64474487 C421.74190735 415.03752594 421.15330933 414.43030701 420.546875 413.8046875 C419.61829681 412.86618454 419.61829681 412.86618454 418.67095947 411.90872192 C416.6900847 409.90445148 414.71960431 407.89034188 412.75 405.875 C410.1652583 403.24363459 407.57622647 400.61654936 404.984375 397.9921875 C404.35909912 397.35823059 403.73382324 396.72427368 403.08959961 396.07110596 C399.53310543 392.48402622 395.90276286 389.07893421 392.04394531 385.81689453 C386.38060014 380.78265961 381.16881014 375.21427784 375.84521484 369.82470703 C370.36670389 364.28443891 364.90567635 358.80137588 358.97070312 353.74365234 C354.7935429 350.04775562 350.92263983 346.02430597 347 342.0625 C346.12988281 341.18787109 345.25976562 340.31324219 344.36328125 339.41210938 C342.23986451 337.27702551 340.11883622 335.13962795 338 333 C333.26068638 336.98546575 328.81831378 341.11319851 324.50390625 345.55859375 C322.482079 347.52995417 320.43357573 349.36904573 318.29415894 351.20704651 C314.29461618 354.69617958 310.52078684 358.35643658 306.78955078 362.12866211 C306.11859879 362.80268066 305.44764679 363.47669922 304.75636292 364.17114258 C303.31539518 365.6192071 301.87556064 367.0684 300.43677139 368.51862907 C298.16161628 370.81129938 295.88282713 373.10030011 293.60299683 375.38832092 C287.12719169 381.8884867 280.65719505 388.39441227 274.19140625 394.90454102 C270.22474378 398.89789926 266.25329398 402.88644337 262.27880478 406.87201118 C260.76578194 408.39125689 259.25466108 409.91239917 257.7454567 411.43543816 C255.64614788 413.55384349 253.54086153 415.66612773 251.43408203 417.77709961 C250.80863998 418.41130325 250.18319794 419.0455069 249.5388031 419.69892883 C245.22789896 424 245.22789896 424 243 424 C241.56812 422.54923153 241.56812 422.54923153 239.89888 420.53196716 C236.01031186 415.96291496 231.86446887 411.72357933 227.61791992 407.48852539 C226.81056396 406.67941711 226.00320801 405.87030884 225.17138672 405.03668213 C222.52690809 402.38783493 219.87882779 399.74262332 217.23046875 397.09765625 C215.38423797 395.25075139 213.53815561 393.40369814 211.69221497 391.5565033 C207.83672437 387.69920129 203.97914727 383.84399542 200.12036133 379.98999023 C195.65869061 375.53378337 191.20066489 371.07395431 186.74446982 366.61227232 C182.44801143 362.31073592 178.14875515 358.01200754 173.8482914 353.71447563 C172.0210351 351.8878877 170.19452489 350.0605531 168.36876488 348.23246956 C165.82661807 345.6877957 163.28130959 343.14632805 160.73510742 340.60571289 C159.59822227 339.4657914 159.59822227 339.4657914 158.43836975 338.30284119 C157.74736176 337.61465302 157.05635376 336.92646484 156.34440613 336.21742249 C155.7432709 335.61666429 155.14213568 335.01590609 154.52278423 334.39694309 C153.0334259 332.90209468 153.0334259 332.90209468 151 332 C150.77860352 332.55913086 150.55720703 333.11826172 150.32910156 333.69433594 C148.58064486 336.72747795 146.36290733 338.57762173 143.734375 340.890625 C139.08805599 345.04493293 134.59497811 349.31181621 130.203125 353.734375 C129.63299683 354.3078064 129.06286865 354.88123779 128.47546387 355.4720459 C126.7316173 357.22937171 124.99036323 358.9892248 123.25 360.75 C110.35065438 373.7988001 110.35065438 373.7988001 106.046875 377.453125 C99.65633162 382.8889528 93.8952636 389.04018972 88 395 C73.69427201 409.46236004 73.69427201 409.46236004 67.54296875 414.68408203 C65.59792396 416.34290979 63.78831907 418.11192428 62 419.9375 C61.4225 420.52402344 60.845 421.11054688 60.25 421.71484375 C59.8375 422.13894531 59.425 422.56304687 59 423 C52.93102369 417.92187697 47.22868378 412.67781199 42.125 406.6171875 C36.58752927 400.2578858 30.49260762 394.42511244 24.5 388.5 C10.3280285 374.48764846 10.3280285 374.48764846 5.44726562 368.66601562 C3.72909753 366.68815141 1.85257232 364.85257232 0 363 C0 243.21 0 123.42 0 0 Z " transform="translate(0,0)" style="fill: #FEFEFE;"/><path d="M0 0 C3.20205982 1.41274016 5.35173535 3.10065465 7.82183838 5.56787109 C8.56778259 6.30817566 9.31372681 7.04848022 10.08227539 7.81121826 C10.89075928 8.62375061 11.69924316 9.43628296 12.53222656 10.2734375 C13.82057404 11.55652802 13.82057404 11.55652802 15.13494873 12.86553955 C17.48554731 15.20884725 19.83156038 17.55656401 22.17533588 19.90668488 C24.62803698 22.36445111 27.08561575 24.81733215 29.54241943 27.27099609 C33.6650231 31.389963 37.78339542 35.51312539 41.89941406 39.63867188 C46.66269469 44.41285093 51.43315716 49.17976272 56.20738626 53.94299126 C60.30453317 58.03107426 64.39778479 62.1230268 68.48778129 66.21826363 C70.93146104 68.66506617 73.37648333 71.11048597 75.82501984 73.5524292 C78.5508619 76.27144287 81.26851502 78.998549 83.98535156 81.7265625 C84.80193237 82.53909485 85.61851318 83.3516272 86.45983887 84.18878174 C87.19450378 84.9290863 87.9291687 85.66939087 88.68609619 86.43212891 C89.32984318 87.07662994 89.97359016 87.72113098 90.63684464 88.38516235 C92 90 92 90 92 92 C97.24053156 87.51179071 102.25787428 82.88133837 107.11523438 77.98242188 C108.10720573 76.98826012 108.10720573 76.98826012 109.11921692 75.97401428 C110.54054857 74.54890652 111.96072501 73.12264582 113.37983704 71.69532776 C115.63179056 69.43049183 117.88695696 67.1688985 120.14294434 64.90808105 C124.93145493 60.10819934 129.71602019 55.30439696 134.5 50.5 C140.048127 44.9281946 145.59790145 39.358051 151.15193176 33.79212952 C153.36292687 31.57469922 155.57086441 29.35425586 157.77868652 27.13366699 C159.14722973 25.76148793 160.51591541 24.38945093 161.88476562 23.01757812 C162.48863602 22.40854141 163.09250641 21.7995047 163.7146759 21.17201233 C167.42146784 17.46476986 171.25570519 13.96095069 175.23159027 10.54355621 C177.5921526 8.48313968 179.80224709 6.2945928 182 4.0625 C183.1446875 2.90427734 183.1446875 2.90427734 184.3125 1.72265625 C184.869375 1.15417969 185.42625 0.58570313 186 0 C192.72175754 5.56687839 198.7670994 11.7085136 204.88476562 17.92382812 C208.43616741 21.50957062 211.97394314 25.04186379 215.81640625 28.31640625 C222.29173488 33.874188 228.16194676 40.10818511 234.15478516 46.17529297 C241.37951212 53.55542479 241.37951212 53.55542479 249.015625 60.5 C252.50355053 63.46836995 255.70075097 66.68728995 258.890625 69.96875 C259.4077002 70.49843384 259.92477539 71.02811768 260.45751953 71.57385254 C262.60700896 73.77759351 264.75459128 75.9826784 266.88378906 78.20605469 C268.45814342 79.84667772 270.04768578 81.4711938 271.640625 83.09375 C272.11985413 83.60192261 272.59908325 84.11009521 273.09283447 84.63366699 C274.59008936 86.20080978 274.59008936 86.20080978 277 88 C280.5767305 87.69773106 282.31318692 86.0582877 284.78387451 83.57688904 C285.52140457 82.84348297 286.25893463 82.1100769 287.01881409 81.35444641 C287.81794724 80.54452744 288.61708038 79.73460846 289.44042969 78.90014648 C290.7141468 77.62708649 290.7141468 77.62708649 292.01359558 76.32830811 C294.33903188 74.0011397 296.65761106 71.66751335 298.97340679 69.33077502 C301.39570492 66.8897251 303.82649946 64.45716629 306.25640869 62.0236969 C310.8557644 57.41501633 315.44741923 52.79874172 320.03636193 48.17969519 C325.26138549 42.92114137 330.49492856 37.67110199 335.72920752 32.4217633 C346.49565158 21.62396023 357.25133731 10.81550541 368 0 C369.10915723 0.94853974 370.21800359 1.897443 371.32672119 2.84649658 C372.25300512 3.63906797 372.25300512 3.63906797 373.19800186 4.44765091 C383.37349705 13.21343172 392.80925439 22.71081563 402.25 32.25 C404.8563494 34.88323218 407.46621062 37.51291394 410.078125 40.140625 C410.65540344 40.72620178 411.23268188 41.31177856 411.82745361 41.9151001 C414.77764333 44.88265197 417.78717221 47.72009791 420.95507812 50.45507812 C425.03875466 53.98614116 428.84907201 57.73787599 432.640625 61.578125 C433.33009216 62.27137878 434.01955933 62.96463257 434.72991943 63.67889404 C436.90575553 65.86682052 439.0782824 68.05798598 441.25 70.25 C444.12730908 73.15393909 447.00794195 76.05452161 449.890625 78.953125 C450.54484436 79.6156427 451.19906372 80.2781604 451.87310791 80.96075439 C452.48764832 81.57859802 453.10218872 82.19644165 453.73535156 82.83300781 C454.27081604 83.37370911 454.80628052 83.9144104 455.35797119 84.47149658 C457.02598933 86.09029512 457.02598933 86.09029512 459.20404053 87.57293701 C459.79670715 88.0438678 460.38937378 88.51479858 461 89 C461 89.66 461 90.32 461 91 C466.41020517 86.37492195 471.56210535 81.5753499 476.57421875 76.5234375 C477.28430084 75.81189514 477.99438293 75.10035278 478.72598267 74.36724854 C480.2537173 72.83573478 481.78029662 71.30306785 483.30581665 69.76934814 C485.72580168 67.33649465 488.14898843 64.90687051 490.57299805 62.47802734 C495.71815355 57.32149396 500.85936769 52.16104213 506 47 C511.96116247 41.01516997 517.92396572 35.03199405 523.89102173 29.05303955 C526.26820672 26.6694133 528.64233867 24.2827752 531.01635742 21.89599609 C532.48601575 20.42270231 533.95581632 18.94955038 535.42578125 17.4765625 C536.07640533 16.82077209 536.72702942 16.16498169 537.39736938 15.48931885 C541.23895167 11.64730123 545.19887715 8.00365931 549.32096863 4.4637146 C550.59058884 3.35690882 551.80900157 2.19099843 553 1 C556.77730095 1.27136245 558.60532958 3.24564482 561.18261719 5.85791016 C561.99736511 6.67611237 562.81211304 7.49431458 563.65155029 8.33731079 C564.52450745 9.22888885 565.3974646 10.12046692 566.296875 11.0390625 C567.6840498 12.43634996 569.07122709 13.83363496 570.45854568 15.23077965 C572.40295988 17.19273915 574.34040462 19.16151356 576.2779541 21.13024902 C579.6482697 24.55254892 583.02812274 27.9654152 586.40997314 31.37631226 C588.20747794 33.19063973 590.00187778 35.0080504 591.79266357 36.82901001 C596.05787365 41.14452791 600.38890413 45.26845663 604.99206543 49.21939087 C608.9126123 52.69607863 612.55735982 56.45689897 616.2421875 60.1796875 C617.09177032 61.03305695 617.94135315 61.88642639 618.81668091 62.76565552 C621.5052412 65.4663433 624.19051304 68.17026368 626.875 70.875 C630.43205324 74.45857014 633.99235333 78.03886787 637.5546875 81.6171875 C638.37234589 82.44314423 639.19000427 83.26910095 640.03244019 84.12008667 C640.78727692 84.87822662 641.54211365 85.63636658 642.31982422 86.41748047 C642.98408417 87.08697723 643.64834412 87.756474 644.33273315 88.44625854 C645.9329069 90.08420997 645.9329069 90.08420997 648 91 C648.27055647 90.40454282 648.54111294 89.80908564 648.81986809 89.1955843 C649.98947242 87.01958611 651.14317116 85.60773808 652.8821106 83.87065125 C653.76500008 82.98147003 653.76500008 82.98147003 654.66572571 82.07432556 C655.30986923 81.43580154 655.95401276 80.79727753 656.61767578 80.1394043 C657.63759361 79.11663895 657.63759361 79.11663895 658.67811584 78.07321167 C660.92899011 75.81863096 663.18699031 73.57133725 665.4453125 71.32421875 C667.01549135 69.75523255 668.58530012 68.18587591 670.15475464 66.61616516 C673.44871812 63.32376666 676.74601545 60.03475634 680.04589844 56.74829102 C684.26066801 52.55044823 688.46888877 48.34611671 692.67482185 44.13942242 C695.91916595 40.89535139 699.16611909 37.65390236 702.41393661 34.4133091 C703.96535192 32.86506135 705.51617519 31.3162201 707.06637955 29.76675987 C709.24374545 27.59158152 711.42438566 25.41973881 713.60595703 23.2487793 C714.23795517 22.61632797 714.86995331 21.98387665 715.52110291 21.33226013 C719.31826053 17.56184817 723.23317723 13.97852557 727.28754997 10.48583698 C729.24391882 8.7883596 731.11041678 7.02318126 732.9375 5.1875 C733.50339844 4.62417969 734.06929687 4.06085938 734.65234375 3.48046875 C736.10165172 2.02284428 736.10165172 2.02284428 737 0 C741.18167326 1.63256246 743.94467643 4.7086575 747.015625 7.85546875 C747.87761505 8.72526115 747.87761505 8.72526115 748.75701904 9.61262512 C750.59284019 11.4662186 752.42185415 13.3263386 754.25 15.1875 C756.64761852 17.62189182 759.04842835 20.05306827 761.453125 22.48046875 C762.03465332 23.06758636 762.61618164 23.65470398 763.21533203 24.25961304 C766.68178862 27.73830959 770.23792005 31.02995451 773.98339844 34.20825195 C779.23724786 38.87629081 784.07472631 44.02818425 789.00927734 49.02978516 C795.80348741 55.95351642 795.80348741 55.95351642 802.984375 62.46875 C806.40162173 65.38428597 809.54520898 68.529534 812.671875 71.75 C813.16671387 72.25744751 813.66155273 72.76489502 814.17138672 73.28771973 C816.22536235 75.39591315 818.2773665 77.50548669 820.31103516 79.63330078 C821.81589191 81.20442994 823.33592082 82.75942679 824.859375 84.3125 C826.19693848 85.69888672 826.19693848 85.69888672 827.56152344 87.11328125 C829.74406105 89.24580772 829.74406105 89.24580772 831.93115234 88.81887817 C834.39595474 87.8432757 835.68255334 86.67268709 837.54003906 84.78466797 C838.21464172 84.10661102 838.88924438 83.42855408 839.58428955 82.72994995 C840.30413025 81.99148834 841.02397095 81.25302673 841.765625 80.4921875 C842.51785339 79.73334259 843.27008179 78.97449768 844.04510498 78.19265747 C846.4539233 75.76041896 848.85239895 73.31829254 851.25 70.875 C853.63494926 68.45481469 856.02206759 66.03682935 858.41204834 63.62161255 C859.8979813 62.118915 861.38080424 60.61313326 862.85992432 59.10372925 C866.10707267 55.81047041 869.37975277 52.61958698 872.88842773 49.60498047 C877.86321462 45.31987632 882.45483606 40.6696581 887.08203125 36.015625 C888.02726004 35.06852527 888.97271419 34.12165042 889.91838074 33.17498779 C892.38369376 30.70589443 894.84598899 28.23381369 897.30761719 25.76104736 C899.81717438 23.2412101 902.32960609 20.72424244 904.84179688 18.20703125 C909.25033439 13.78897475 913.65639308 9.36845647 918.06062317 4.94610596 C919.7053563 3.29566604 921.35175251 1.64692907 923 0 C927.16637549 1.6344861 929.94137105 4.6814173 933.01855469 7.80737305 C933.61100983 8.40114243 934.20346497 8.9949118 934.81387329 9.60667419 C936.771177 11.57046711 938.72140636 13.54113904 940.671875 15.51171875 C942.03653701 16.88265538 943.40171826 18.25307532 944.76739502 19.6230011 C948.36558777 23.23450128 951.95818208 26.85151531 955.54919434 30.47015381 C961.28106811 36.24510645 967.0195376 42.01348374 972.76145172 47.77845192 C974.75786035 49.78500584 976.75077232 51.79498357 978.74334717 53.80534363 C984.15915805 59.25687133 989.54802442 64.66026539 995.40997314 69.63829041 C997.69694587 71.59686909 999.81657184 73.70418692 1001.9375 75.83984375 C1002.76894531 76.67451172 1003.60039063 77.50917969 1004.45703125 78.36914062 C1005.29621094 79.21669922 1006.13539062 80.06425781 1007 80.9375 C1007.87011719 81.81212891 1008.74023438 82.68675781 1009.63671875 83.58789062 C1011.76013549 85.72297449 1013.88116378 87.86037205 1016 90 C1021.3789643 85.51569523 1026.35541994 80.76332087 1031.27734375 75.78515625 C1032.04752335 75.01119003 1032.81770294 74.23722382 1033.61122131 73.43980408 C1036.87802854 70.15678267 1040.13883041 66.86782055 1043.40014648 63.5793457 C1045.79461138 61.16668469 1048.19215797 58.75711573 1050.58984375 56.34765625 C1051.67615334 55.24889915 1051.67615334 55.24889915 1052.78440857 54.12794495 C1056.07071608 50.82607522 1059.38337235 47.61945593 1062.91625977 44.58154297 C1067.76190041 40.40424865 1072.24178185 35.88307166 1076.75 31.34765625 C1077.64871826 30.44752304 1078.54743652 29.54738983 1079.47338867 28.61997986 C1081.83586575 26.25288737 1084.19615112 23.88365361 1086.55535889 21.51330566 C1088.97385181 19.08449258 1091.39525946 16.65858897 1093.81640625 14.23242188 C1098.54692954 9.49092631 1103.27457973 4.74658102 1108 0 C1109.12704093 0.96024775 1110.25326891 1.92144971 1111.37915039 2.88305664 C1112.00640518 3.41822403 1112.63365997 3.95339142 1113.27992249 4.504776 C1115.08629879 6.07501756 1116.78005368 7.71117279 1118.4375 9.4375 C1120.76809861 11.81759009 1123.16478435 14.04240952 1125.69921875 16.203125 C1130.12306815 20.05094441 1134.25445933 24.14453858 1138.375 28.3125 C1139.14376465 29.08505127 1139.9125293 29.85760254 1140.70458984 30.65356445 C1143.9585983 33.92376036 1147.20656266 37.1999349 1150.45507812 40.47558594 C1152.84295352 42.88165285 1155.23390793 45.28463038 1157.625 47.6875 C1158.34606934 48.41686768 1159.06713867 49.14623535 1159.81005859 49.89770508 C1163.77413484 53.88064036 1167.84168326 57.65650348 1172.09765625 61.32473755 C1175.08596952 63.95633818 1177.88607443 66.76209575 1180.6875 69.58984375 C1181.56946045 70.47392662 1181.56946045 70.47392662 1182.46923828 71.37586975 C1184.31522361 73.22737618 1186.15766892 75.08235817 1188 76.9375 C1189.2640885 78.20661373 1190.52840956 79.47549589 1191.79296875 80.74414062 C1194.86466724 83.8267632 1197.93320008 86.91250428 1201 90 C1204.11445756 88.61607019 1206.227102 87.01909146 1208.62528992 84.60848999 C1209.67893234 83.55680382 1209.67893234 83.55680382 1210.75386047 82.48387146 C1211.51401962 81.71495071 1212.27417877 80.94602997 1213.05737305 80.15380859 C1213.86589722 79.34397018 1214.67442139 78.53413177 1215.50744629 77.69975281 C1218.18016019 75.02054478 1220.84583456 72.33443984 1223.51171875 69.6484375 C1225.36397874 67.78990907 1227.21675352 65.93189355 1229.07002258 64.07437134 C1233.44992239 59.68310049 1237.82512031 55.2871792 1242.19828969 50.88920653 C1250.50268413 42.53780255 1258.81423163 34.19353605 1267.12977028 25.85322952 C1269.86710293 23.10562692 1272.6010242 20.35466248 1275.3346405 17.60336304 C1276.99991695 15.93126303 1278.66530099 14.25927016 1280.33081055 12.58740234 C1281.09704239 11.81443314 1281.86327423 11.04146393 1282.65272522 10.24507141 C1283.34669403 9.54958694 1284.04066284 8.85410248 1284.75566101 8.13754272 C1285.36161448 7.52806982 1285.96756796 6.91859692 1286.59188366 6.29065514 C1288 5 1288 5 1289 5 C1293.35004046 65.07198732 1293.35004046 65.07198732 1283.9375 77.28125 C1278.59741949 83.44167349 1271.89633576 87.75828115 1265 92 C1256.57951862 98.33955782 1249.39772648 106.5271152 1242 114 C1226.80274767 129.35165112 1226.80274767 129.35165112 1220.7578125 134.46923828 C1217.33642071 137.4487003 1214.18578747 140.7105443 1211 143.9375 C1210.32066406 144.62134766 1209.64132812 145.30519531 1208.94140625 146.00976562 C1207.29191641 147.67087159 1205.6448332 149.33428513 1204 151 C1199.97248591 149.15235372 1197.28670318 146.47259937 1194.25 143.3125 C1190.25721453 139.23244053 1186.20906107 135.34325033 1181.859375 131.640625 C1179.10779595 129.21276113 1176.57353926 126.58250081 1174 123.96875 C1172.06108998 122.06013545 1170.06300449 120.27289448 1168 118.5 C1164.48858352 115.48237647 1161.24692598 112.26640919 1158 108.96875 C1156.06108998 107.06013545 1154.06300449 105.27289448 1152 103.5 C1148.48998489 100.48358077 1145.24948724 97.26904868 1142.00390625 93.97265625 C1139.41753849 91.42662171 1136.6846472 89.07978443 1133.93359375 86.71484375 C1131.43568444 84.4995262 1129.11975011 82.1310183 1126.78125 79.75 C1124.29089021 77.30333073 1121.64425405 75.05491413 1119 72.77734375 C1115.86211898 69.98879714 1112.92589677 67.00818762 1110 64 C1107.08524394 65.32640907 1104.92681265 66.78953146 1102.6015625 68.984375 C1101.96412109 69.58314453 1101.32667969 70.18191406 1100.66992188 70.79882812 C1099.65768555 71.7646582 1099.65768555 71.7646582 1098.625 72.75 C1097.57022461 73.74676758 1097.57022461 73.74676758 1096.49414062 74.76367188 C1091.18913995 79.80175427 1085.98510985 84.93660826 1080.86962891 90.16699219 C1078.06092805 93.02145423 1075.19363404 95.73256017 1072.15625 98.34375 C1067.53711493 102.33521312 1063.27798639 106.64901042 1059 111 C1054.14353654 115.93933826 1049.24978224 120.71151141 1043.99609375 125.2265625 C1040.33204512 128.48190121 1036.93294957 132.00451948 1033.5 135.5 C1028.18746619 140.90930128 1022.78080055 146.09059872 1017 151 C1006.3859756 142.11384004 996.42473487 132.5706475 986.73266602 122.69580078 C983.59991624 119.52097109 980.43234383 116.4607682 977.05078125 113.55078125 C971.8708761 109.08612738 967.14400301 104.19216336 962.35546875 99.31640625 C958.9970915 95.92119122 955.62261919 92.61759553 952 89.50390625 C946.81767261 85.04644226 942.11360684 80.12965787 937.35546875 75.22851562 C932.86368026 70.66692786 928.24639338 66.67265189 923 63 C912.32240477 72.48942765 902.30572122 82.61099337 892.25 92.75 C888.98735409 96.03943597 885.72126539 99.32539888 882.453125 102.609375 C881.7227301 103.34806824 880.99233521 104.08676147 880.23980713 104.84783936 C876.28409116 108.82218383 872.22690348 112.58683938 867.98016357 116.24691772 C864.50961554 119.31947007 861.26408129 122.6135075 858 125.90234375 C856.91827515 126.98619102 856.91827515 126.98619102 855.81469727 128.0919342 C853.54074585 130.37142604 851.27032046 132.6543924 849 134.9375 C847.44684765 136.49567506 845.89346433 138.05361993 844.33984375 139.61132812 C840.55722414 143.40489759 836.7774831 147.20131615 833 151 C830.21860866 149.65940965 828.19668085 148.43340653 826.046875 146.20703125 C825.51457275 145.66312744 824.98227051 145.11922363 824.43383789 144.55883789 C823.87817139 143.98254639 823.32250488 143.40625488 822.75 142.8125 C817.56901612 137.51533004 817.56901612 137.51533004 812.0625 132.5625 C807.48648238 128.686001 803.35013799 124.3747532 799.13525391 120.11572266 C795.58558242 116.54318081 791.96851023 113.15403123 788.12109375 109.90234375 C784.52185634 106.67429841 781.17331789 103.1922629 777.77490234 99.75537109 C774.9524361 96.913276 772.12416268 94.15009878 769.0625 91.5625 C764.49356806 87.69200352 760.36315386 83.3881707 756.1550293 79.13549805 C752.41517399 75.37134153 748.60449753 71.76481014 744.5546875 68.33203125 C742.59771333 66.65532725 740.78405193 64.85838743 739 63 C735.754387 64.42074324 733.6373841 66.13762681 731.171875 68.66796875 C730.45386719 69.39693359 729.73585938 70.12589844 728.99609375 70.87695312 C727.88427734 72.02067383 727.88427734 72.02067383 726.75 73.1875 C725.2890284 74.68350378 723.82550062 76.17701569 722.359375 77.66796875 C721.71452148 78.33078857 721.06966797 78.9936084 720.40527344 79.67651367 C718.51976194 81.49791166 716.61829775 83.18547448 714.62402344 84.88037109 C707.97753679 90.65743639 701.86715608 97.0103109 695.65625 103.24609375 C694.27784813 104.6263637 692.89922309 106.0064108 691.52038574 107.38624573 C687.91464527 110.9957807 684.31191967 114.60830999 680.70983887 118.22149658 C677.02454066 121.91707527 673.33636419 125.60977905 669.6484375 129.30273438 C662.42949074 136.53236428 655.21372951 143.76516456 648 151 C644.68787903 149.42983745 642.52422908 147.74784314 639.953125 145.11328125 C639.19 144.33919922 638.426875 143.56511719 637.640625 142.76757812 C636.85171875 141.95740234 636.0628125 141.14722656 635.25 140.3125 C630.28964354 135.24053552 625.30970531 130.32045271 619.92480469 125.69995117 C616.62843034 122.78865557 613.57774366 119.6387845 610.5 116.5 C604.91548793 110.82399606 604.91548793 110.82399606 599 105.5 C594.20485648 101.4619844 589.8954922 96.91874941 585.48828125 92.46875 C582.40792204 89.36994552 579.34483396 86.31670228 576 83.5 C573.32911463 81.21190577 570.81182571 78.84824441 568.36328125 76.32421875 C567.69876953 75.64746094 567.03425781 74.97070312 566.34960938 74.2734375 C565.01460012 72.90642899 563.68619796 71.53292956 562.36523438 70.15234375 C561.74583984 69.518125 561.12644531 68.88390625 560.48828125 68.23046875 C559.66130737 67.37038208 559.66130737 67.37038208 558.81762695 66.49291992 C556.68409136 64.74052635 554.567694 63.97557431 552 63 C551.10321533 63.89900528 550.20643066 64.79801056 549.2824707 65.72425842 C540.81110566 74.21593714 532.33706947 82.70494223 523.86044312 91.19136906 C519.50311908 95.55390105 515.1467258 99.91735395 510.79248047 104.28295898 C506.58663327 108.49970938 502.37831415 112.7139784 498.16830444 116.9265728 C496.56636145 118.53035667 494.96529561 120.13501721 493.36514282 121.74058723 C491.11556997 123.99746923 488.86283563 126.25115116 486.609375 128.50415039 C485.95553329 129.16158737 485.30169159 129.81902435 484.6280365 130.49638367 C480.79136202 134.32462263 476.84058854 137.96197288 472.72967529 141.49462032 C470.55740313 143.38520313 468.51776228 145.38370625 466.5 147.4375 C465.49453125 148.45650391 465.49453125 148.45650391 464.46875 149.49609375 C463.9840625 149.99238281 463.499375 150.48867188 463 151 C458.76086298 147.45296699 454.77191305 143.81614684 450.90405273 139.87084961 C449.1078797 138.10599848 447.25761287 136.47050825 445.33984375 134.83984375 C439.84756554 130.06562608 434.80992918 124.85788019 429.7109375 119.671875 C426.23359736 116.158686 422.74997101 112.72274736 419 109.5 C413.60322543 104.86197988 408.69645636 99.74247097 403.7109375 94.671875 C400.24022942 91.16538642 396.76580813 87.73930532 393.015625 84.53125 C389.99261293 81.93667275 387.19103893 79.20808218 384.421875 76.34375 C383.26945313 75.15265625 383.26945313 75.15265625 382.09375 73.9375 C380.50811439 72.28843897 378.93017435 70.63194932 377.359375 68.96875 C376.59625 68.185 375.833125 67.40125 375.046875 66.59375 C374.02352051 65.52157227 374.02352051 65.52157227 372.97949219 64.42773438 C371.14809324 62.77280949 371.14809324 62.77280949 369.1127739 63.19682217 C366.51566872 64.1841201 365.17596751 65.45477251 363.21612549 67.42311096 C362.47859543 68.15651703 361.74106537 68.8899231 360.98118591 69.64555359 C360.18205276 70.45547256 359.38291962 71.26539154 358.55957031 72.09985352 C357.2858532 73.37291351 357.2858532 73.37291351 355.98640442 74.67169189 C353.66096812 76.9988603 351.34238894 79.33248665 349.02659321 81.66922498 C346.60429508 84.1102749 344.17350054 86.54283371 341.74359131 88.9763031 C337.1442356 93.58498367 332.55258077 98.20125828 327.96363807 102.82030481 C322.73861451 108.07885863 317.50507144 113.32889801 312.27079248 118.5782367 C301.50434842 129.37603977 290.74866269 140.18449459 280 151 C278.89120098 150.05183584 277.78272281 149.10329646 276.67437744 148.15460205 C276.05705875 147.62642506 275.43974007 147.09824806 274.80371475 146.5540657 C264.80669879 137.94071948 255.52391747 128.62433112 246.25 119.25 C243.73740925 116.71050922 241.22129383 114.1745833 238.703125 111.640625 C238.14772034 111.076922 237.59231567 110.51321899 237.02008057 109.93243408 C234.12029124 107.01494798 231.15615149 104.2320818 228.04272461 101.54272461 C224.05086328 98.08952409 220.31935207 94.4313669 216.61328125 90.67578125 C215.94838181 90.00709518 215.28348236 89.33840912 214.59843445 88.64945984 C212.50064265 86.53958511 210.40616197 84.42647236 208.3125 82.3125 C205.54068747 79.51400183 202.76551415 76.71889914 199.98828125 73.92578125 C199.36109695 73.29029861 198.73391266 72.65481598 198.08772278 72.00007629 C194.87356329 68.76805628 191.63883702 65.76389715 188 63 C184.64953623 64.45503494 182.47034898 66.29100152 179.90917969 68.87963867 C179.11445251 69.6777446 178.31972534 70.47585052 177.50091553 71.29814148 C176.64983215 72.16268448 175.79874878 73.02722748 174.921875 73.91796875 C174.03647034 74.80857498 173.15106567 75.69918121 172.23883057 76.61677551 C169.88422236 78.98618777 167.53375145 81.35954285 165.18560791 83.73535156 C161.89608841 87.06277165 158.60157268 90.38521159 155.30401611 93.70466614 C153.55147181 95.46934753 151.80160649 97.23669491 150.05487061 99.00712585 C145.83730372 103.2588106 141.54795758 107.31966305 137.00665283 111.22166443 C133.14404507 114.6447841 129.54253656 118.33604773 125.90625 121.99609375 C124.65805481 123.24641136 124.65805481 123.24641136 123.38464355 124.52198792 C120.75405065 127.15813262 118.12697559 129.79775105 115.5 132.4375 C113.70596145 134.23655979 111.91169285 136.0353902 110.1171875 137.83398438 C105.74212875 142.22000812 101.36994488 146.60888142 97 151 C93.99922964 149.5630921 91.93368254 148.16416019 89.609375 145.76953125 C88.67508667 144.81784058 88.67508667 144.81784058 87.72192383 143.84692383 C87.07118896 143.17556396 86.4204541 142.5042041 85.75 141.8125 C81.30508488 137.29114062 76.86943459 132.88991544 72.01953125 128.80078125 C68.6743046 125.81790023 65.5720071 122.59148071 62.42333984 119.40380859 C59.09369665 116.04890096 55.66041869 112.90251818 52.05859375 109.83984375 C48.92769719 107.04164208 46.01170305 104.03226344 43.06396484 101.04443359 C40.47977682 98.43879261 37.85790842 95.93946891 35.0625 93.5625 C30.9580986 90.06490949 27.21706583 86.24466273 23.4309082 82.41137695 C20.04171227 78.99639541 16.55782383 75.77158506 12.875 72.671875 C10.00273416 70.11077129 7.43700726 67.26081796 4.859375 64.40625 C3.13514759 62.76923883 3.13514759 62.76923883 1.12028122 63.19816494 C-1.48376559 64.18294753 -2.82018627 65.45090962 -4.78387451 67.42311096 C-5.52140457 68.15651703 -6.25893463 68.8899231 -7.01881409 69.64555359 C-7.81794724 70.45547256 -8.61708038 71.26539154 -9.44042969 72.09985352 C-10.28957443 72.94856018 -11.13871918 73.79726685 -12.01359558 74.67169189 C-14.33903188 76.9988603 -16.65761106 79.33248665 -18.97340679 81.66922498 C-21.39570492 84.1102749 -23.82649946 86.54283371 -26.25640869 88.9763031 C-30.8557644 93.58498367 -35.44741923 98.20125828 -40.03636193 102.82030481 C-45.26138549 108.07885863 -50.49492856 113.32889801 -55.72920752 118.5782367 C-66.49565158 129.37603977 -77.25133731 140.18449459 -88 151 C-89.10420253 150.05665657 -90.2079553 149.11278667 -91.31152344 148.16870117 C-91.92622498 147.64314133 -92.54092651 147.11758148 -93.17425537 146.57609558 C-105.19721814 136.19713119 -116.29363223 124.79003481 -127.45605469 113.50708008 C-135.05421935 105.83172317 -135.05421935 105.83172317 -143.12329102 98.65795898 C-143.74260498 98.11083252 -144.36191895 97.56370605 -145 97 C-146.57696655 95.84455688 -146.57696655 95.84455688 -148.18579102 94.66577148 C-152.05117963 90.73037397 -151.68176948 86.44625059 -151.67977905 81.17227173 C-151.64881134 79.89081268 -151.61784363 78.60935364 -151.5859375 77.2890625 C-151.57473383 75.95244254 -151.56619917 74.61579779 -151.56021118 73.27914429 C-151.53740325 69.7768235 -151.47855548 66.27601789 -151.4119873 62.77429199 C-151.3503874 59.19478855 -151.32315882 55.615038 -151.29296875 52.03515625 C-151.22879984 45.02281871 -151.12652169 38.01148228 -151 31 C-149.89211311 31.93501798 -148.78632354 32.87252133 -147.68139648 33.81103516 C-146.75737282 34.59373276 -146.75737282 34.59373276 -145.81468201 35.39224243 C-143.0209307 37.86742805 -140.55966563 40.60631003 -138.0625 43.375 C-130.44957602 51.68617943 -122.45582607 59.60406324 -114.43969727 67.52294922 C-109.6124559 72.30383554 -104.87227567 77.09696772 -100.50927734 82.31469727 C-97.9323075 85.19221633 -94.98835971 87.56052269 -92 90 C-91.154375 89.14277344 -90.30875 88.28554688 -89.4375 87.40234375 C-88.2918054 86.24725821 -87.14596412 85.09231815 -86 83.9375 C-85.44699219 83.37611328 -84.89398438 82.81472656 -84.32421875 82.23632812 C-81.45245853 79.34806353 -78.54289938 76.57751953 -75.4375 73.94140625 C-68.94592583 68.33241725 -63.02920102 62.09521417 -57 56 C-43.30161192 42.15162957 -43.30161192 42.15162957 -39.04296875 38.54296875 C-32.40411599 32.90780733 -26.4328884 26.49665036 -20.3125 20.3125 C-17.728197 17.70149243 -15.14051949 15.0938967 -12.55078125 12.48828125 C-11.96734451 11.89654617 -11.38390778 11.3048111 -10.78279114 10.69514465 C-7.66614173 7.55992573 -4.45849451 4.76201121 -1 2 C-0.67 1.34 -0.34 0.68 0 0 Z " transform="translate(151,332)" style="fill: #251F20;"/><path d="M0 0 C3.20205982 1.41274016 5.35173535 3.10065465 7.82183838 5.56787109 C8.56778259 6.30817566 9.31372681 7.04848022 10.08227539 7.81121826 C10.89075928 8.62375061 11.69924316 9.43628296 12.53222656 10.2734375 C13.82057404 11.55652802 13.82057404 11.55652802 15.13494873 12.86553955 C17.48554731 15.20884725 19.83156038 17.55656401 22.17533588 19.90668488 C24.62803698 22.36445111 27.08561575 24.81733215 29.54241943 27.27099609 C33.6650231 31.389963 37.78339542 35.51312539 41.89941406 39.63867188 C46.66269469 44.41285093 51.43315716 49.17976272 56.20738626 53.94299126 C60.30453317 58.03107426 64.39778479 62.1230268 68.48778129 66.21826363 C70.93146104 68.66506617 73.37648333 71.11048597 75.82501984 73.5524292 C78.5508619 76.27144287 81.26851502 78.998549 83.98535156 81.7265625 C84.80193237 82.53909485 85.61851318 83.3516272 86.45983887 84.18878174 C87.19450378 84.9290863 87.9291687 85.66939087 88.68609619 86.43212891 C89.32984318 87.07662994 89.97359016 87.72113098 90.63684464 88.38516235 C92 90 92 90 92 92 C97.24053156 87.51179071 102.25787428 82.88133837 107.11523438 77.98242188 C108.10720573 76.98826012 108.10720573 76.98826012 109.11921692 75.97401428 C110.54054857 74.54890652 111.96072501 73.12264582 113.37983704 71.69532776 C115.63179056 69.43049183 117.88695696 67.1688985 120.14294434 64.90808105 C124.93145493 60.10819934 129.71602019 55.30439696 134.5 50.5 C140.048127 44.9281946 145.59790145 39.358051 151.15193176 33.79212952 C153.36292687 31.57469922 155.57086441 29.35425586 157.77868652 27.13366699 C159.14722973 25.76148793 160.51591541 24.38945093 161.88476562 23.01757812 C162.48863602 22.40854141 163.09250641 21.7995047 163.7146759 21.17201233 C167.42146784 17.46476986 171.25570519 13.96095069 175.23159027 10.54355621 C177.5921526 8.48313968 179.80224709 6.2945928 182 4.0625 C183.1446875 2.90427734 183.1446875 2.90427734 184.3125 1.72265625 C184.869375 1.15417969 185.42625 0.58570313 186 0 C192.72175754 5.56687839 198.7670994 11.7085136 204.88476562 17.92382812 C208.43616741 21.50957062 211.97394314 25.04186379 215.81640625 28.31640625 C222.29173488 33.874188 228.16194676 40.10818511 234.15478516 46.17529297 C241.37951212 53.55542479 241.37951212 53.55542479 249.015625 60.5 C252.50355053 63.46836995 255.70075097 66.68728995 258.890625 69.96875 C259.4077002 70.49843384 259.92477539 71.02811768 260.45751953 71.57385254 C262.60700896 73.77759351 264.75459128 75.9826784 266.88378906 78.20605469 C268.45814342 79.84667772 270.04768578 81.4711938 271.640625 83.09375 C272.11985413 83.60192261 272.59908325 84.11009521 273.09283447 84.63366699 C274.59008936 86.20080978 274.59008936 86.20080978 277 88 C280.5767305 87.69773106 282.31318692 86.0582877 284.78387451 83.57688904 C285.52140457 82.84348297 286.25893463 82.1100769 287.01881409 81.35444641 C287.81794724 80.54452744 288.61708038 79.73460846 289.44042969 78.90014648 C290.7141468 77.62708649 290.7141468 77.62708649 292.01359558 76.32830811 C294.33903188 74.0011397 296.65761106 71.66751335 298.97340679 69.33077502 C301.39570492 66.8897251 303.82649946 64.45716629 306.25640869 62.0236969 C310.8557644 57.41501633 315.44741923 52.79874172 320.03636193 48.17969519 C325.26138549 42.92114137 330.49492856 37.67110199 335.72920752 32.4217633 C346.49565158 21.62396023 357.25133731 10.81550541 368 0 C369.10915723 0.94853974 370.21800359 1.897443 371.32672119 2.84649658 C372.25300512 3.63906797 372.25300512 3.63906797 373.19800186 4.44765091 C383.37349705 13.21343172 392.80925439 22.71081563 402.25 32.25 C404.8563494 34.88323218 407.46621062 37.51291394 410.078125 40.140625 C410.65540344 40.72620178 411.23268188 41.31177856 411.82745361 41.9151001 C414.77764333 44.88265197 417.78717221 47.72009791 420.95507812 50.45507812 C425.03875466 53.98614116 428.84907201 57.73787599 432.640625 61.578125 C433.33009216 62.27137878 434.01955933 62.96463257 434.72991943 63.67889404 C436.90575553 65.86682052 439.0782824 68.05798598 441.25 70.25 C444.12730908 73.15393909 447.00794195 76.05452161 449.890625 78.953125 C450.54484436 79.6156427 451.19906372 80.2781604 451.87310791 80.96075439 C452.48764832 81.57859802 453.10218872 82.19644165 453.73535156 82.83300781 C454.27081604 83.37370911 454.80628052 83.9144104 455.35797119 84.47149658 C457.02598933 86.09029512 457.02598933 86.09029512 459.20404053 87.57293701 C459.79670715 88.0438678 460.38937378 88.51479858 461 89 C461 89.66 461 90.32 461 91 C466.41020517 86.37492195 471.56210535 81.5753499 476.57421875 76.5234375 C477.28430084 75.81189514 477.99438293 75.10035278 478.72598267 74.36724854 C480.2537173 72.83573478 481.78029662 71.30306785 483.30581665 69.76934814 C485.72580168 67.33649465 488.14898843 64.90687051 490.57299805 62.47802734 C495.71815355 57.32149396 500.85936769 52.16104213 506 47 C511.96116247 41.01516997 517.92396572 35.03199405 523.89102173 29.05303955 C526.26820672 26.6694133 528.64233867 24.2827752 531.01635742 21.89599609 C532.48601575 20.42270231 533.95581632 18.94955038 535.42578125 17.4765625 C536.07640533 16.82077209 536.72702942 16.16498169 537.39736938 15.48931885 C541.23895167 11.64730123 545.19887715 8.00365931 549.32096863 4.4637146 C550.59058884 3.35690882 551.80900157 2.19099843 553 1 C556.77730095 1.27136245 558.60532958 3.24564482 561.18261719 5.85791016 C561.99736511 6.67611237 562.81211304 7.49431458 563.65155029 8.33731079 C564.52450745 9.22888885 565.3974646 10.12046692 566.296875 11.0390625 C567.6840498 12.43634996 569.07122709 13.83363496 570.45854568 15.23077965 C572.40295988 17.19273915 574.34040462 19.16151356 576.2779541 21.13024902 C579.6482697 24.55254892 583.02812274 27.9654152 586.40997314 31.37631226 C588.20747794 33.19063973 590.00187778 35.0080504 591.79266357 36.82901001 C596.05787365 41.14452791 600.38890413 45.26845663 604.99206543 49.21939087 C608.9126123 52.69607863 612.55735982 56.45689897 616.2421875 60.1796875 C617.09177032 61.03305695 617.94135315 61.88642639 618.81668091 62.76565552 C621.5052412 65.4663433 624.19051304 68.17026368 626.875 70.875 C630.43205324 74.45857014 633.99235333 78.03886787 637.5546875 81.6171875 C638.37234589 82.44314423 639.19000427 83.26910095 640.03244019 84.12008667 C640.78727692 84.87822662 641.54211365 85.63636658 642.31982422 86.41748047 C642.98408417 87.08697723 643.64834412 87.756474 644.33273315 88.44625854 C645.9329069 90.08420997 645.9329069 90.08420997 648 91 C648.27055647 90.40454282 648.54111294 89.80908564 648.81986809 89.1955843 C649.98947242 87.01958611 651.14317116 85.60773808 652.8821106 83.87065125 C653.76500008 82.98147003 653.76500008 82.98147003 654.66572571 82.07432556 C655.30986923 81.43580154 655.95401276 80.79727753 656.61767578 80.1394043 C657.63759361 79.11663895 657.63759361 79.11663895 658.67811584 78.07321167 C660.92899011 75.81863096 663.18699031 73.57133725 665.4453125 71.32421875 C667.01549135 69.75523255 668.58530012 68.18587591 670.15475464 66.61616516 C673.44871812 63.32376666 676.74601545 60.03475634 680.04589844 56.74829102 C684.26066801 52.55044823 688.46888877 48.34611671 692.67482185 44.13942242 C695.91916595 40.89535139 699.16611909 37.65390236 702.41393661 34.4133091 C703.96535192 32.86506135 705.51617519 31.3162201 707.06637955 29.76675987 C709.24374545 27.59158152 711.42438566 25.41973881 713.60595703 23.2487793 C714.23795517 22.61632797 714.86995331 21.98387665 715.52110291 21.33226013 C719.31826053 17.56184817 723.23317723 13.97852557 727.28754997 10.48583698 C729.24391882 8.7883596 731.11041678 7.02318126 732.9375 5.1875 C733.50339844 4.62417969 734.06929687 4.06085938 734.65234375 3.48046875 C736.10165172 2.02284428 736.10165172 2.02284428 737 0 C741.18167326 1.63256246 743.94467643 4.7086575 747.015625 7.85546875 C747.87761505 8.72526115 747.87761505 8.72526115 748.75701904 9.61262512 C750.59284019 11.4662186 752.42185415 13.3263386 754.25 15.1875 C756.64761852 17.62189182 759.04842835 20.05306827 761.453125 22.48046875 C762.03465332 23.06758636 762.61618164 23.65470398 763.21533203 24.25961304 C766.68178862 27.73830959 770.23792005 31.02995451 773.98339844 34.20825195 C779.23724786 38.87629081 784.07472631 44.02818425 789.00927734 49.02978516 C795.80348741 55.95351642 795.80348741 55.95351642 802.984375 62.46875 C806.40162173 65.38428597 809.54520898 68.529534 812.671875 71.75 C813.16671387 72.25744751 813.66155273 72.76489502 814.17138672 73.28771973 C816.22536235 75.39591315 818.2773665 77.50548669 820.31103516 79.63330078 C821.81589191 81.20442994 823.33592082 82.75942679 824.859375 84.3125 C826.19693848 85.69888672 826.19693848 85.69888672 827.56152344 87.11328125 C829.74406105 89.24580772 829.74406105 89.24580772 831.93115234 88.81887817 C834.39595474 87.8432757 835.68255334 86.67268709 837.54003906 84.78466797 C838.21464172 84.10661102 838.88924438 83.42855408 839.58428955 82.72994995 C840.30413025 81.99148834 841.02397095 81.25302673 841.765625 80.4921875 C842.51785339 79.73334259 843.27008179 78.97449768 844.04510498 78.19265747 C846.4539233 75.76041896 848.85239895 73.31829254 851.25 70.875 C853.63494926 68.45481469 856.02206759 66.03682935 858.41204834 63.62161255 C859.8979813 62.118915 861.38080424 60.61313326 862.85992432 59.10372925 C866.10707267 55.81047041 869.37975277 52.61958698 872.88842773 49.60498047 C877.86321462 45.31987632 882.45483606 40.6696581 887.08203125 36.015625 C888.02726004 35.06852527 888.97271419 34.12165042 889.91838074 33.17498779 C892.38369376 30.70589443 894.84598899 28.23381369 897.30761719 25.76104736 C899.81717438 23.2412101 902.32960609 20.72424244 904.84179688 18.20703125 C909.25033439 13.78897475 913.65639308 9.36845647 918.06062317 4.94610596 C919.7053563 3.29566604 921.35175251 1.64692907 923 0 C927.16637549 1.6344861 929.94137105 4.6814173 933.01855469 7.80737305 C933.61100983 8.40114243 934.20346497 8.9949118 934.81387329 9.60667419 C936.771177 11.57046711 938.72140636 13.54113904 940.671875 15.51171875 C942.03653701 16.88265538 943.40171826 18.25307532 944.76739502 19.6230011 C948.36558777 23.23450128 951.95818208 26.85151531 955.54919434 30.47015381 C961.28106811 36.24510645 967.0195376 42.01348374 972.76145172 47.77845192 C974.75786035 49.78500584 976.75077232 51.79498357 978.74334717 53.80534363 C984.15915805 59.25687133 989.54802442 64.66026539 995.40997314 69.63829041 C997.69694587 71.59686909 999.81657184 73.70418692 1001.9375 75.83984375 C1002.76894531 76.67451172 1003.60039063 77.50917969 1004.45703125 78.36914062 C1005.29621094 79.21669922 1006.13539062 80.06425781 1007 80.9375 C1007.87011719 81.81212891 1008.74023438 82.68675781 1009.63671875 83.58789062 C1011.76013549 85.72297449 1013.88116378 87.86037205 1016 90 C1021.3789643 85.51569523 1026.35541994 80.76332087 1031.27734375 75.78515625 C1032.04752335 75.01119003 1032.81770294 74.23722382 1033.61122131 73.43980408 C1036.87802854 70.15678267 1040.13883041 66.86782055 1043.40014648 63.5793457 C1045.79461138 61.16668469 1048.19215797 58.75711573 1050.58984375 56.34765625 C1051.67615334 55.24889915 1051.67615334 55.24889915 1052.78440857 54.12794495 C1056.07071608 50.82607522 1059.38337235 47.61945593 1062.91625977 44.58154297 C1067.76190041 40.40424865 1072.24178185 35.88307166 1076.75 31.34765625 C1077.64871826 30.44752304 1078.54743652 29.54738983 1079.47338867 28.61997986 C1081.83586575 26.25288737 1084.19615112 23.88365361 1086.55535889 21.51330566 C1088.97385181 19.08449258 1091.39525946 16.65858897 1093.81640625 14.23242188 C1098.54692954 9.49092631 1103.27457973 4.74658102 1108 0 C1109.12704093 0.96024775 1110.25326891 1.92144971 1111.37915039 2.88305664 C1112.00640518 3.41822403 1112.63365997 3.95339142 1113.27992249 4.504776 C1115.08629879 6.07501756 1116.78005368 7.71117279 1118.4375 9.4375 C1120.76809861 11.81759009 1123.16478435 14.04240952 1125.69921875 16.203125 C1130.12306815 20.05094441 1134.25445933 24.14453858 1138.375 28.3125 C1139.14376465 29.08505127 1139.9125293 29.85760254 1140.70458984 30.65356445 C1143.9585983 33.92376036 1147.20656266 37.1999349 1150.45507812 40.47558594 C1152.84295352 42.88165285 1155.23390793 45.28463038 1157.625 47.6875 C1158.34606934 48.41686768 1159.06713867 49.14623535 1159.81005859 49.89770508 C1163.77413484 53.88064036 1167.84168326 57.65650348 1172.09765625 61.32473755 C1175.08596952 63.95633818 1177.88607443 66.76209575 1180.6875 69.58984375 C1181.56946045 70.47392662 1181.56946045 70.47392662 1182.46923828 71.37586975 C1184.31522361 73.22737618 1186.15766892 75.08235817 1188 76.9375 C1189.2640885 78.20661373 1190.52840956 79.47549589 1191.79296875 80.74414062 C1194.86466724 83.8267632 1197.93320008 86.91250428 1201 90 C1204.11445756 88.61607019 1206.227102 87.01909146 1208.62528992 84.60848999 C1209.67893234 83.55680382 1209.67893234 83.55680382 1210.75386047 82.48387146 C1211.51401962 81.71495071 1212.27417877 80.94602997 1213.05737305 80.15380859 C1213.86589722 79.34397018 1214.67442139 78.53413177 1215.50744629 77.69975281 C1218.18016019 75.02054478 1220.84583456 72.33443984 1223.51171875 69.6484375 C1225.36397874 67.78990907 1227.21675352 65.93189355 1229.07002258 64.07437134 C1233.44992239 59.68310049 1237.82512031 55.2871792 1242.19828969 50.88920653 C1250.50268413 42.53780255 1258.81423163 34.19353605 1267.12977028 25.85322952 C1269.86710293 23.10562692 1272.6010242 20.35466248 1275.3346405 17.60336304 C1276.99991695 15.93126303 1278.66530099 14.25927016 1280.33081055 12.58740234 C1281.09704239 11.81443314 1281.86327423 11.04146393 1282.65272522 10.24507141 C1283.34669403 9.54958694 1284.04066284 8.85410248 1284.75566101 8.13754272 C1285.36161448 7.52806982 1285.96756796 6.91859692 1286.59188366 6.29065514 C1288 5 1288 5 1289 5 C1293.44403793 31.02357707 1293.44403793 31.02357707 1286.47900391 41.05273438 C1279.51649003 49.827924 1270.67137312 56.98714681 1262 64 C1253.99324155 70.63775547 1246.8077323 78.11524769 1239.5 85.5 C1224.80665549 100.34820535 1224.80665549 100.34820535 1218.71289062 105.51416016 C1215.65617066 108.16569917 1212.83825352 111.05624263 1210 113.9375 C1209.41605469 114.52595703 1208.83210938 115.11441406 1208.23046875 115.72070312 C1206.81795195 117.14479793 1205.4086219 118.5720525 1204 120 C1200.06785699 118.41060574 1197.66979654 115.83657498 1194.75 112.8125 C1190.94072006 108.91187346 1187.04167113 105.21478657 1182.89453125 101.67578125 C1180.134772 99.23467461 1177.58789024 96.597094 1175.00390625 93.97265625 C1172.41753849 91.42662171 1169.6846472 89.07978443 1166.93359375 86.71484375 C1164.43430862 84.49830603 1162.11718116 82.12837719 1159.77734375 79.74609375 C1157.93406426 77.93522357 1156.02177201 76.24678646 1154.0625 74.5625 C1150.53365237 71.52320349 1147.26994973 68.28983153 1144.00390625 64.97265625 C1141.41753849 62.42662171 1138.6846472 60.07978443 1135.93359375 57.71484375 C1133.43430862 55.49830603 1131.11718116 53.12837719 1128.77734375 50.74609375 C1126.30754356 48.31971861 1123.68140674 46.09350753 1121.0546875 43.83984375 C1118.14436448 41.23383207 1115.45400387 38.43037324 1112.76171875 35.6015625 C1110.98646971 33.77095443 1110.98646971 33.77095443 1108 33 C1107.443125 33.56847656 1106.88625 34.13695312 1106.3125 34.72265625 C1105.549375 35.49480469 1104.78625 36.26695312 1104 37.0625 C1103.2575 37.81660156 1102.515 38.57070313 1101.75 39.34765625 C1099.61647373 41.40541809 1097.46292992 43.34657516 1095.21875 45.27734375 C1090.76209655 49.1439923 1086.63242842 53.29229966 1082.5 57.5 C1078.45051536 61.62324574 1074.41641052 65.700117 1070.03125 69.46875 C1065.44821339 73.41187392 1061.23659911 77.69110398 1057 82 C1048.57802352 90.56569621 1048.57802352 90.56569621 1044.0078125 94.48828125 C1038.52919746 99.19489729 1033.5688694 104.41942552 1028.53515625 109.59179688 C1024.58157291 113.60262971 1020.85353889 117.12354165 1016 120 C1015.5875 119.57589844 1015.175 119.15179688 1014.75 118.71484375 C1014.1725 118.12832031 1013.595 117.54179687 1013 116.9375 C1012.1646875 116.08478516 1012.1646875 116.08478516 1011.3125 115.21484375 C1009.34738135 113.33271153 1007.34282081 111.55881803 1005.28125 109.78515625 C1000.03745879 105.22657803 995.22115387 100.27071951 990.35546875 95.31640625 C987.00697477 91.9311829 983.64339331 88.63554742 980.03125 85.53125 C974.62579389 80.88053801 969.706912 75.75310504 964.7109375 70.671875 C960.60488029 66.5234873 956.42189831 62.57700023 951.99609375 58.7734375 C947.57202892 54.84285935 943.50019556 50.536629 939.35546875 46.31640625 C932.55136843 39.23095596 932.55136843 39.23095596 925 33 C921.51837946 33 921.24857596 33.35649448 918.83984375 35.6484375 C918.22052979 36.23222168 917.60121582 36.81600586 916.96313477 37.41748047 C916.29467529 38.06346191 915.62621582 38.70944336 914.9375 39.375 C914.23359131 40.04547363 913.52968262 40.71594727 912.80444336 41.40673828 C904.39428844 49.46056992 896.19639413 57.72984359 888 66 C884.96133748 69.06550245 881.91917974 72.12747745 878.875 75.1875 C878.20090088 75.86989746 877.52680176 76.55229492 876.83227539 77.25537109 C873.00721439 81.09991619 869.06544611 84.72448876 864.96020508 88.26687622 C861.72563884 91.12673192 858.69540811 94.18142682 855.65625 97.24609375 C855.00168823 97.90207047 854.34712646 98.55804718 853.67272949 99.23390198 C851.61276177 101.29940145 849.55632634 103.36837595 847.5 105.4375 C846.0913795 106.85114434 844.68252733 108.26455786 843.2734375 109.67773438 C839.84627867 113.11583149 836.42227981 116.55704656 833 120 C829.33565049 118.28974534 827.0654411 116.24002076 824.25 113.3125 C821.31401831 110.31241391 818.39371046 107.39678187 815.1875 104.6875 C811.42865137 101.477611 807.97257321 98.01210165 804.5 94.5 C800.49087701 90.44534466 796.44135492 86.56021844 792.08984375 82.87109375 C788.72503925 79.85849309 785.59454812 76.61427958 782.42163086 73.40209961 C779.69675921 70.65658173 776.94967675 68.00722524 774 65.5 C769.91125235 62.0245645 766.19183316 58.21899763 762.42407227 54.40454102 C759.10400682 51.05929574 755.682083 47.92021114 752.08984375 44.8671875 C747.5273988 40.79083482 743.28915038 36.36011058 739 32 C735.73766879 33.42882214 733.59006091 35.17053252 731.09277344 37.69604492 C729.96074493 38.83314156 729.96074493 38.83314156 728.80584717 39.99320984 C727.99851135 40.81400528 727.19117554 41.63480072 726.359375 42.48046875 C725.09785614 43.74978996 725.09785614 43.74978996 723.81085205 45.04475403 C721.11911663 47.75430529 718.43413474 50.47042077 715.75 53.1875 C713.07933638 55.88589762 710.40719478 58.58278724 707.73199463 61.27668762 C706.06847403 62.95233414 704.4076324 64.63064603 702.74993896 66.3120575 C698.64833611 70.44857162 694.46413811 74.38181561 690.04888916 78.1794281 C686.0221149 81.75748015 682.26469141 85.61415125 678.46875 89.43359375 C677.59222778 90.31153091 676.71570557 91.18946808 675.81262207 92.0940094 C673.03937204 94.87281496 670.26963718 97.65509397 667.5 100.4375 C665.60989195 102.33319865 663.71898482 104.22809783 661.828125 106.12304688 C657.21608996 110.74605189 652.60692859 115.37190657 648 120 C644.99922964 118.5630921 642.93368254 117.16416019 640.609375 114.76953125 C639.98667725 114.13523193 639.36397949 113.50093262 638.72241211 112.84741211 C638.07151611 112.17589111 637.42062012 111.50437012 636.75 110.8125 C635.39381303 109.43303917 634.03576422 108.05540608 632.67578125 106.6796875 C631.76566284 105.7513208 631.76566284 105.7513208 630.8371582 104.80419922 C628.37824249 102.38939695 625.78705606 100.15320915 623.15234375 97.93359375 C619.32118595 94.49180952 615.75642972 90.77482166 612.13476562 87.11523438 C608.58526122 83.54285454 604.96833219 80.15388076 601.12109375 76.90234375 C597.52185634 73.67429841 594.17331789 70.1922629 590.77490234 66.75537109 C587.9524361 63.913276 585.12416268 61.15009878 582.0625 58.5625 C578.15727065 55.25424838 574.597422 51.63467411 571 48 C564.97178523 41.91514857 558.89540951 36.10380747 552 31 C552 31.66 552 32.32 552 33 C550.52385139 34.45558643 550.52385139 34.45558643 548.48684692 36.14326477 C544.18168011 39.80703009 540.18609423 43.69228719 536.21044922 47.70776367 C535.4776474 48.44363205 534.74484558 49.17950043 533.98983765 49.93766785 C532.41301279 51.52159812 530.83731905 53.10665509 529.26266098 54.69273949 C526.76797443 57.20493955 524.26965435 59.71347366 521.77029419 62.22102356 C514.66954743 69.34612273 507.57452337 76.47690047 500.48388672 83.61206055 C496.134711 87.98803744 491.78066118 92.35911546 487.4235878 96.72722816 C485.76872244 98.38829141 484.11575571 100.0512485 482.46474838 101.71614647 C480.15797925 104.04216275 477.84508647 106.36192462 475.53076172 108.68041992 C474.85424561 109.36569763 474.17772949 110.05097534 473.48071289 110.75701904 C469.87291524 114.3574205 466.35526056 117.34391691 462 120 C461.3709375 119.35933594 460.741875 118.71867187 460.09375 118.05859375 C458.80984375 116.76115234 458.80984375 116.76115234 457.5 115.4375 C456.6646875 114.59058594 455.829375 113.74367188 454.96875 112.87109375 C452.77601015 110.70202206 450.49304655 108.67284232 448.15625 106.66015625 C443.17852851 102.34577843 438.60976747 97.66073949 434 92.9609375 C430.76002463 89.68299366 427.49302931 86.50864439 424 83.5 C419.06537869 79.24967188 414.55746611 74.60741662 410 69.9609375 C406.77025802 66.69334698 403.51488375 63.52847667 400.03125 60.53125 C394.85685023 56.07439395 390.13749431 51.1855361 385.35546875 46.31640625 C378.55136843 39.23095596 378.55136843 39.23095596 371 33 C368.04951061 32.68000348 368.04951061 32.68000348 366.45703125 34.28515625 C365.91433594 34.87167969 365.37164063 35.45820313 364.8125 36.0625 C362.4439607 38.60392538 359.97093801 40.90988147 357.33764648 43.16993713 C353.18772359 46.78864898 349.27212135 50.5930101 345.390625 54.49584961 C344.67744614 55.20888245 343.96426727 55.92191528 343.22947693 56.65655518 C340.90060298 58.98611918 338.57527938 61.31919226 336.25 63.65234375 C334.62497505 65.2792361 332.99972745 66.90590608 331.37426758 68.53236389 C327.11750917 72.79292207 322.86376371 77.05647589 318.61065674 81.32067871 C314.26179868 85.67980574 309.91007292 90.03606788 305.55859375 94.39257812 C297.03626693 102.92559742 288.51712308 111.46178688 280 120 C271.51990603 113.77671411 271.51990603 113.77671411 268.18945312 110.40063477 C267.23806458 109.44417809 267.23806458 109.44417809 266.26745605 108.46839905 C265.61200806 107.79949142 264.95656006 107.1305838 264.28125 106.44140625 C263.57907349 105.73402817 262.87689697 105.02665009 262.15344238 104.2978363 C259.93074887 102.0574933 257.71491328 99.81053303 255.5 97.5625 C253.28422999 95.31891799 251.06693307 93.07689998 248.84655762 90.83787537 C247.4723447 89.4516102 246.10080869 88.06268391 244.73254395 86.67054749 C240.92843458 82.82726752 237.0015672 79.21320567 232.90759277 75.6815033 C230.0109063 73.12813451 227.3016129 70.40697925 224.59375 67.65625 C223.74024963 66.7970697 223.74024963 66.7970697 222.86950684 65.92053223 C220.47567314 63.51060718 218.08795757 61.09465522 215.69970703 58.67919922 C206.88919868 49.7574372 206.88919868 49.7574372 197.58300781 41.36035156 C195.4832657 39.5559464 193.55012859 37.61298993 191.625 35.625 C189.07819716 32.94789804 189.07819716 32.94789804 186 31 C185.67 31.99 185.34 32.98 185 34 C183.51599121 35.46276855 183.51599121 35.46276855 181.58398438 37.04492188 C176.32292176 41.51258937 171.51223731 46.38136339 166.65625 51.28125 C165.67823581 52.26368378 164.69991749 53.24581488 163.72131348 54.22766113 C160.64468605 57.31560571 157.57203564 60.40748814 154.5 63.5 C150.93446097 67.08930463 147.36722072 70.67688508 143.79570007 74.26023865 C142.38241371 75.67991157 140.97222889 77.10266999 139.56213379 78.5255127 C135.11575029 82.98869123 130.61399253 87.29164971 125.83312988 91.39395142 C122.86284268 93.99629051 120.09071074 96.7855287 117.3125 99.58984375 C116.72452637 100.17923233 116.13655273 100.76862091 115.53076172 101.37586975 C113.68477639 103.22737618 111.84233108 105.08235817 110 106.9375 C108.7359115 108.20661373 107.47159044 109.47549589 106.20703125 110.74414062 C103.13533276 113.8267632 100.06679992 116.91250428 97 120 C92.97247358 118.15234806 90.28672525 115.47256361 87.25 112.3125 C83.90688427 108.89660896 80.5847007 105.53346747 76.9375 102.4375 C73.10445971 99.17822041 69.59629183 95.6248468 66.06616211 92.04663086 C63.4607863 89.41959998 60.81537795 86.89999432 58 84.5 C54.14956985 81.2176661 50.61854421 77.64745151 47.06860352 74.04907227 C43.84633552 70.79999393 40.50659355 67.77556137 37.02734375 64.80859375 C33.68120064 61.82349884 30.58406048 58.59117232 27.43359375 55.40234375 C24.7706522 52.77359727 21.98755607 50.35030181 19.140625 47.92578125 C15.45800504 44.61276731 12.05186933 41.01611931 8.61328125 37.453125 C6.17888437 35.16792135 3.87478605 33.6568091 1 32 C0.44147339 32.56074722 -0.11705322 33.12149445 -0.69250488 33.69923401 C-5.98527415 39.01213312 -11.28051391 44.32255233 -16.57846832 49.63028049 C-19.3013787 52.35838474 -22.0233614 55.08740073 -24.74316406 57.81860352 C-27.37340927 60.45980293 -30.00616925 63.09847235 -32.64060974 65.73548698 C-33.63968295 66.73639205 -34.63788345 67.7381691 -35.63514709 68.74087715 C-40.64404111 73.77599827 -45.68606154 78.6790255 -51.07702637 83.3028717 C-54.68607189 86.48804969 -58.04716188 89.92534617 -61.4375 93.33984375 C-62.20304199 94.10680069 -62.96858398 94.87375763 -63.75732422 95.66395569 C-66.17393197 98.08610881 -68.58701726 100.51173612 -71 102.9375 C-72.64950686 104.59202893 -74.29924429 106.24632802 -75.94921875 107.90039062 C-79.96881371 111.93094202 -83.98553169 115.96434272 -88 120 C-88.46289429 119.60276733 -88.92578857 119.20553467 -89.40270996 118.79626465 C-93.18816294 115.54720026 -93.18816294 115.54720026 -96.99414062 112.32226562 C-104.11950168 106.2518934 -110.58250809 99.47843456 -117.15478516 92.82470703 C-128.04085484 81.79758791 -128.04085484 81.79758791 -140.0625 72.0546875 C-145.67550285 67.70088331 -150.28954721 63.7094574 -151.67529297 56.47412109 C-152.30816372 47.95010987 -151.83439936 39.4971808 -151 31 C-146.32324437 34.84880498 -142.11553862 38.88126228 -138.0625 43.375 C-130.44957602 51.68617943 -122.45582607 59.60406324 -114.43969727 67.52294922 C-109.6124559 72.30383554 -104.87227567 77.09696772 -100.50927734 82.31469727 C-97.9323075 85.19221633 -94.98835971 87.56052269 -92 90 C-91.154375 89.14277344 -90.30875 88.28554688 -89.4375 87.40234375 C-88.2918054 86.24725821 -87.14596412 85.09231815 -86 83.9375 C-85.44699219 83.37611328 -84.89398438 82.81472656 -84.32421875 82.23632812 C-81.45245853 79.34806353 -78.54289938 76.57751953 -75.4375 73.94140625 C-68.94592583 68.33241725 -63.02920102 62.09521417 -57 56 C-43.30161192 42.15162957 -43.30161192 42.15162957 -39.04296875 38.54296875 C-32.40411599 32.90780733 -26.4328884 26.49665036 -20.3125 20.3125 C-17.728197 17.70149243 -15.14051949 15.0938967 -12.55078125 12.48828125 C-11.96734451 11.89654617 -11.38390778 11.3048111 -10.78279114 10.69514465 C-7.66614173 7.55992573 -4.45849451 4.76201121 -1 2 C-0.67 1.34 -0.34 0.68 0 0 Z " transform="translate(151,332)" style="fill: #E42425;"/><path d="M0 0 C31.72182186 -2.43109802 31.72182186 -2.43109802 39.09375 2.87109375 C42.11037308 5.70160127 44.54158707 8.89239052 46.83007812 12.32958984 C48.39249969 14.56040962 50.25872746 16.17641283 52.375 17.875 C55.07194073 20.15791145 57.58247204 22.54468114 60.0625 25.0625 C62.58843652 27.60332416 65.11451191 30.13492888 67.75 32.5625 C68.28109375 33.05878906 68.8121875 33.55507813 69.359375 34.06640625 C70.96466644 35.19872448 70.96466644 35.19872448 72.89254761 34.7490387 C75.3664519 33.86975428 76.52975975 32.82104596 78.35986328 30.94897461 C79.31072311 29.98809181 79.31072311 29.98809181 80.28079224 29.00779724 C80.95383392 28.31299759 81.62687561 27.61819794 82.3203125 26.90234375 C83.37011795 25.83905602 83.37011795 25.83905602 84.44113159 24.75428772 C86.67634514 22.4890329 88.9014027 20.21415441 91.125 17.9375 C93.35660239 15.6581769 95.5903384 13.38111872 97.83029175 11.11000061 C99.22433065 9.69609859 100.6134039 8.27728088 101.99710083 6.85325623 C102.62470306 6.21581985 103.2523053 5.57838348 103.89892578 4.92163086 C104.4508963 4.3561705 105.00286682 3.79071014 105.57156372 3.20811462 C107 2 107 2 109 2 C109 1.34 109 0.68 109 0 C119.89 0 130.78 0 142 0 C138.20210738 4.43087473 134.5417375 8.58606977 130.4453125 12.6875 C129.9400705 13.19369873 129.43482849 13.69989746 128.91427612 14.22143555 C127.85504767 15.28133819 126.79458079 16.34000457 125.73291016 17.39746094 C124.13198611 18.99303722 122.53646316 20.5938734 120.94140625 22.1953125 C119.90136199 23.23469563 118.86100739 24.27376833 117.8203125 25.3125 C116.89492676 26.23675781 115.96954102 27.16101563 115.01611328 28.11328125 C112.77868367 30.29964446 110.45557538 32.35778867 108.08642578 34.40039062 C104.11798362 37.84299087 100.44615107 41.5056824 96.796875 45.28125 C95.47454768 46.63078605 94.15161394 47.97972814 92.828125 49.328125 C90.7725668 51.42720801 88.7211899 53.52981574 86.6796875 55.64257812 C84.68834609 57.70017139 82.68174395 59.7417731 80.671875 61.78125 C80.0614032 62.42066528 79.4509314 63.06008057 78.82196045 63.71887207 C77.08105469 65.47070312 77.08105469 65.47070312 74 68 C70.84506991 67.59283738 69.19705475 66.58345535 66.92578125 64.40234375 C66.34965088 63.85650635 65.77352051 63.31066895 65.17993164 62.74829102 C64.5636792 62.15072998 63.94742676 61.55316895 63.3125 60.9375 C62.33108032 60.00345337 62.33108032 60.00345337 61.32983398 59.05053711 C59.93149346 57.71967417 58.5358174 56.38600703 57.14257812 55.04980469 C53.63811082 51.6970805 50.09792828 48.38250209 46.5625 45.0625 C45.12741325 43.71114022 43.6925177 42.35957736 42.2578125 41.0078125 C37.50263814 36.52993304 32.73911731 32.06099387 27.97143555 27.59643555 C24.52661347 24.37046803 21.08604993 21.14014425 17.65234375 17.90234375 C16.9363501 17.22824463 16.22035645 16.55414551 15.48266602 15.85961914 C14.12118598 14.57762317 12.76091016 13.29434656 11.40209961 12.00952148 C8.51922748 9.29748622 5.62893179 6.67046233 2.5390625 4.1953125 C1.70117188 3.47085937 0.86328125 2.74640625 0 2 C0 1.34 0 0.68 0 0 Z " transform="translate(1282,327)" style="fill: #F4B915;"/><path d="M0 0 C30.20835665 -2.95321898 30.20835665 -2.95321898 38.6953125 3.5390625 C42.32557579 6.98859757 45.35886491 10.80901019 48.30029297 14.85205078 C50.5985038 17.75633962 53.26765048 20.00991545 56.10131836 22.37670898 C59.36743404 25.1690972 62.24271776 28.3390006 65.12890625 31.51953125 C66.60619074 33.12212999 66.60619074 33.12212999 69 35 C73.68536971 34.51870583 76.17070321 31.11502564 79.25 27.875 C80.42126445 26.67131301 81.5944292 25.46947206 82.76953125 24.26953125 C83.3310791 23.69541504 83.89262695 23.12129883 84.47119141 22.52978516 C86.80749472 20.19198947 89.28379106 18.07914094 91.875 16.03125 C93.76589006 14.22378156 94.98606427 12.61473779 96.4375 10.46875 C100.74208717 4.62528943 104.43246555 0.58340158 111.86669922 -0.63232422 C121.54967123 -1.40008275 131.33609221 -0.76484224 141 0 C141 0.66 141 1.32 141 2 C139.53125 3.4453125 139.53125 3.4453125 137.5 5.125 C133.09641089 8.8696013 129.04548565 12.87550096 125 17 C121.13775208 20.93768245 117.28086308 24.81192861 113.09375 28.40625 C108.31299848 32.52404575 103.92361916 37.00537571 99.5 41.5 C94.40718853 46.67455804 89.29044379 51.70143404 83.77734375 56.42773438 C80.3770565 59.43568079 77.37477568 62.82349131 74.296875 66.15625 C72 68 72 68 70.109375 67.85205078 C67.41366645 66.76315925 65.97497176 65.29820537 63.953125 63.2109375 C63.19 62.43363281 62.426875 61.65632813 61.640625 60.85546875 C60.45726562 59.62763672 60.45726562 59.62763672 59.25 58.375 C54.32188918 53.30725937 49.38625498 48.39258033 44.01855469 43.79150391 C39.35915494 39.6562021 35.07662424 35.11206151 30.7109375 30.671875 C26.60544331 26.52405613 22.4248709 22.57227556 18 18.76855469 C14.35014631 15.54107176 10.9343997 12.0784797 7.5 8.625 C6.40945313 7.54025391 6.40945313 7.54025391 5.296875 6.43359375 C4.26820312 5.40298828 4.26820312 5.40298828 3.21875 4.3515625 C2.59935547 3.73104004 1.97996094 3.11051758 1.34179688 2.47119141 C0 1 0 1 0 0 Z " transform="translate(1097,327)" style="fill: #F4B915;"/><path d="M0 0 C31.8901746 -2.25707325 31.8901746 -2.25707325 38.87109375 2.6484375 C42.14826312 5.70779445 44.54102275 9.26974471 47 13 C49.01493848 14.9906453 49.01493848 14.9906453 51.0625 16.5625 C55.21342668 20.0761842 58.99275608 23.93833878 62.78930664 27.82641602 C65.38346886 30.46519422 67.95849562 32.88543029 71 35 C74.48654476 33.5158627 76.64191072 31.53785948 79.25 28.8125 C82.00147559 25.94554278 84.81541037 23.30460113 87.859375 20.7578125 C90.78079064 18.24554445 93.09318008 15.69897935 95.375 12.59765625 C100.27741369 6.26739492 104.7475546 0.84209994 112.91064453 -0.77441406 C122.23764174 -1.68314175 131.70356666 -0.94010788 141 0 C139.44503871 3.96116199 136.7020639 6.30256526 133.58203125 9.04296875 C127.77848148 14.27172027 122.20892584 19.70144877 116.69921875 25.23828125 C115.88615265 26.05465057 115.07308655 26.8710199 114.23538208 27.71212769 C111.71743712 30.24362306 109.20204107 32.77762375 106.6875 35.3125 C103.3402166 38.68656932 99.98949002 42.0571661 96.63671875 45.42578125 C95.88758713 46.18321121 95.13845551 46.94064117 94.36662292 47.72102356 C90.26948937 51.83700045 86.08217717 55.77397934 81.67219543 59.55389404 C79.69271376 61.26573955 77.83101624 63.06833759 76 64.9375 C75.4225 65.52402344 74.845 66.11054688 74.25 66.71484375 C73.8375 67.13894531 73.425 67.56304687 73 68 C64.934462 64.27608639 58.94183513 56.99099976 52.77954102 50.76049805 C49.93534873 47.8957106 47.08214302 45.11198561 44 42.5 C40.29621434 39.36119859 36.91070855 35.94937324 33.5 32.5 C30.10993882 29.07155172 26.74806018 25.6773928 23.0625 22.5625 C17.27945974 17.65680132 12.05054978 12.13294634 6.72583008 6.74169922 C4.49150419 4.48682853 2.24569292 2.24354347 0 0 Z " transform="translate(911,327)" style="fill: #F4B915;"/><path d="M0 0 C4.62183085 -0.3003189 9.23782011 -0.51594431 13.8671875 -0.65917969 C15.4352518 -0.71894607 17.00266421 -0.80041011 18.56835938 -0.90527344 C32.26151729 -1.79830548 32.26151729 -1.79830548 37.64208984 2.59716797 C40.71440168 5.50553887 43.33203542 8.72289624 46 12 C47.34315776 13.24363245 48.71045076 14.46321478 50.125 15.625 C54.17515938 19.06889852 57.85575985 22.8408388 61.58984375 26.62109375 C64.59897286 29.5912066 67.74150454 32.3081994 71 35 C74.76734148 33.41328441 77.48940686 30.94111553 80.4375 28.1875 C80.99912842 27.68702148 81.56075684 27.18654297 82.1394043 26.67089844 C85.94104395 23.20521764 89.20140339 19.56779456 92.3984375 15.53515625 C105.31017597 -0.02939105 105.31017597 -0.02939105 115.25178528 -1.19723511 C123.85828159 -1.78118622 132.45918145 -1.09292372 141 0 C141 0.66 141 1.32 141 2 C139.65979004 3.31896973 139.65979004 3.31896973 137.72851562 4.90039062 C132.5336351 9.32198958 127.75447077 14.13218261 122.95368958 18.97114563 C121.30666117 20.63113059 119.65636048 22.28780235 118.00524902 23.94372559 C114.50065361 27.45965651 111.00002445 30.97951953 107.5 34.5 C103.43880992 38.58492585 99.37593706 42.66814893 95.30879211 46.74714661 C93.69607417 48.36626771 92.08643782 49.98840784 90.47692871 51.61071777 C86.22641089 55.88487328 81.95604529 60.14072382 77.52148438 64.22460938 C76.63511292 65.04221741 76.63511292 65.04221741 75.73083496 65.87634277 C74 67 74 67 70 67 C68.29589844 65.84179688 68.29589844 65.84179688 66.609375 64.21875 C65.98619385 63.62779541 65.3630127 63.03684082 64.72094727 62.42797852 C64.07053467 61.79174561 63.42012207 61.1555127 62.75 60.5 C62.07831787 59.85796631 61.40663574 59.21593262 60.71459961 58.55444336 C56.66134908 54.66617069 52.67600478 50.71221043 48.73828125 46.70703125 C46.96969042 44.97023531 45.13530123 43.35884158 43.25 41.75 C39.65483285 38.6643841 36.32661904 35.36802709 33 32 C29.14879036 28.10103082 25.23578255 24.39175688 21.05859375 20.83984375 C18.43503006 18.49506482 15.96984686 16.00392822 13.5 13.5 C9.59871269 9.54974256 5.61869705 5.80684442 1.36328125 2.2421875 C0.91339844 1.83226562 0.46351563 1.42234375 0 1 C0 0.67 0 0.34 0 0 Z " transform="translate(175,327)" style="fill: #F4B915;"/><path d="M0 0 C4.5529673 -0.19915402 9.10335395 -0.34355091 13.65966797 -0.43945312 C15.206016 -0.47945879 16.75206572 -0.53388691 18.29736328 -0.60351562 C31.13854459 -1.16723437 31.13854459 -1.16723437 35.71801758 1.7043457 C37.70180784 3.70096565 39.32878232 5.74176542 41 8 C42.20082071 9.09443436 43.42711801 10.16222238 44.6875 11.1875 C49.09087161 14.96554073 53.11708406 19.08959152 57.19287109 23.21240234 C61.29575918 27.34420946 65.51894755 31.27707122 70 35 C72.84272892 33.69878894 74.98433026 32.29615917 77.2578125 30.15625 C77.87269531 29.5775415 78.48757813 28.99883301 79.12109375 28.40258789 C80.11302734 27.46080688 80.11302734 27.46080688 81.125 26.5 C81.83527344 25.85087646 82.54554688 25.20175293 83.27734375 24.53295898 C87.19158169 20.90363438 90.67919145 17.24265135 93.9296875 13.00390625 C104.00369413 0.45312752 104.00369413 0.45312752 111.92285156 -0.78662109 C121.25643841 -1.73991081 130.7005262 -1.00169254 140 0 C134.57700031 6.5906201 128.57412452 12.57161412 122.5390625 18.59375 C121.42322469 19.71026297 120.30753524 20.82692421 119.19198608 21.94372559 C116.86203291 24.27514636 114.53029832 26.60476646 112.19726562 28.93310547 C109.22636246 31.89831861 106.25996355 34.86799068 103.29490089 37.83904266 C100.99399494 40.14358532 98.69068389 42.44571238 96.38666916 44.74714661 C95.29284928 45.84030545 94.19975491 46.93419078 93.10744095 48.02885437 C87.76001943 53.38525325 82.40886354 58.68472688 76.63070679 63.58337402 C75.0109765 64.99046451 73.49864654 66.46548738 72 68 C69.16196332 66.70051853 67.02039548 65.30013543 64.75 63.1640625 C64.14744385 62.60017822 63.5448877 62.03629395 62.92407227 61.45532227 C62.28912842 60.85131592 61.65418457 60.24730957 61 59.625 C60.00794556 58.69095337 60.00794556 58.69095337 58.99584961 57.73803711 C54.26306523 53.2601256 49.64153842 48.68066598 45.06396484 44.04492188 C42.50042292 41.45969178 39.90182597 38.97913788 37.125 36.625 C32.53304224 32.72471788 28.37416568 28.39909458 24.13989258 24.12036133 C20.55509112 20.51242279 16.90077554 17.08230214 13.01953125 13.79296875 C10.24897285 11.33322734 7.62426549 8.73924124 5 6.125 C4.50604736 5.63555908 4.01209473 5.14611816 3.50317383 4.6418457 C0 1.12377796 0 1.12377796 0 0 Z " transform="translate(727,327)" style="fill: #F4B915;"/><path d="M0 0 C30.71805515 -2.43115587 30.71805515 -2.43115587 38.02734375 2.87109375 C41.05365215 5.71640098 43.51678842 8.92095983 45.84033203 12.35595703 C47.30763734 14.43613259 49.0057178 15.92985962 51 17.5 C53.65180097 19.71367733 56.06338275 22.07307866 58.453125 24.5625 C59.07703125 25.20767578 59.7009375 25.85285156 60.34375 26.51757812 C61.59951421 27.82352144 62.84466197 29.13976987 64.078125 30.46679688 C64.655625 31.06556641 65.233125 31.66433594 65.828125 32.28125 C66.3427832 32.82845703 66.85744141 33.37566406 67.38769531 33.93945312 C68.94860638 35.21493441 68.94860638 35.21493441 70.91004944 34.76844788 C73.4226605 33.84459318 74.35741981 32.82249115 76.05151367 30.76538086 C76.91408531 29.74469261 76.91408531 29.74469261 77.79408264 28.7033844 C78.41246506 27.96466599 79.03084747 27.22594757 79.66796875 26.46484375 C103.68421891 -0.98750574 103.68421891 -0.98750574 116.58984375 -2.25390625 C124.45776646 -2.67566392 132.31959474 -1.66441416 140 0 C136.80947239 3.77194796 133.62841271 7.5116234 130.125 11 C129.52945313 11.598125 128.93390625 12.19625 128.3203125 12.8125 C126.42761858 14.5968579 124.50296276 16.27791603 122.52392578 17.96289062 C117.70043832 22.17667772 113.23366495 26.71249157 108.75740814 31.28968811 C106.74878568 33.34098338 104.73028625 35.38244739 102.71245193 37.42467499 C98.97197342 41.21066072 95.23584655 45.00073852 91.515625 48.80664062 C88.91062339 51.47087813 86.293702 54.12287149 83.66837311 56.76707458 C82.67345174 57.77374841 81.68308479 58.78494462 80.69741058 59.80067444 C79.32645633 61.21243997 77.93851378 62.60764881 76.54980469 64.00195312 C75.76563171 64.80024536 74.98145874 65.5985376 74.17352295 66.42102051 C72 68 72 68 69.85656738 67.87051392 C67.12024224 66.58749606 65.40032747 64.71561364 63.296875 62.5546875 C62.39839844 61.64203125 61.49992188 60.729375 60.57421875 59.7890625 C59.63235947 58.8181476 58.69095564 57.84679068 57.75 56.875 C52.29338895 51.28792145 46.87468936 45.78118286 40.93457031 40.70751953 C36.52101392 36.81196004 32.4782452 32.51427882 28.35546875 28.31640625 C24.35508836 24.27214601 20.26618158 20.43373022 15.95507812 16.72363281 C12.66876629 13.82635989 9.58688537 10.73175802 6.5 7.625 C5.86835937 6.99722656 5.23671875 6.36945313 4.5859375 5.72265625 C3.99039063 5.12582031 3.39484375 4.52898437 2.78125 3.9140625 C2.24564453 3.3773291 1.71003906 2.8405957 1.15820312 2.28759766 C0 1 0 1 0 0 Z " transform="translate(543,327)" style="fill: #F4B915;"/><path d="M0 0 C30.8865833 -2.25712729 30.8865833 -2.25712729 37.8046875 2.6484375 C40.54896369 5.21451884 42.63970876 8.10023196 44.68603516 11.23657227 C46.71669081 13.96184647 49.26598051 15.97640234 51.85717773 18.15454102 C55.60162781 21.37936705 59.02855129 24.92426533 62.5 28.4375 C63.22703125 29.16904297 63.9540625 29.90058594 64.703125 30.65429688 C66.47109623 32.43389949 68.23620179 34.21626446 70 36 C74.95430101 32.00514999 79.06745756 27.74034623 83.12109375 22.8515625 C103.60415501 -0.8273899 103.60415501 -0.8273899 116.08984375 -1.96875 C123.77742511 -2.35827718 131.45856027 -1.45862006 139 0 C135.0682924 4.70745077 130.97742714 9.1641171 126.62744141 13.48608398 C126.02184387 14.09182755 125.41624634 14.69757111 124.79229736 15.32167053 C122.81441659 17.29886146 120.83303086 19.27249876 118.8515625 21.24609375 C117.46986361 22.62592516 116.08838712 24.0059793 114.7071228 25.38624573 C111.08935087 29.0002185 107.46858481 32.61117673 103.84716797 36.22149658 C100.14498223 39.91341203 96.44566229 43.60819663 92.74609375 47.30273438 C85.50018369 54.53795303 78.25110445 61.76998741 71 69 C69.88094224 68.04715206 68.7627841 67.09324751 67.64500427 66.13890076 C67.02223319 65.60780921 66.39946211 65.07671766 65.75781918 64.52953243 C63.63159948 62.67944339 61.6355836 60.73246793 59.66015625 58.72265625 C58.90669922 57.96146484 58.15324219 57.20027344 57.37695312 56.41601562 C55.83785767 54.85094387 54.298795 53.28583987 52.75976562 51.72070312 C49.38838342 48.31477217 46.02983352 44.96862256 42.37109375 41.87109375 C34.81459681 35.37791658 27.98552166 28.03617283 20.98144531 20.9609375 C19.01058411 18.97183647 17.03751964 16.98497187 15.0625 15 C14.43714355 14.3714209 13.81178711 13.7428418 13.16748047 13.09521484 C9.32522842 9.25707766 5.40868514 5.56770107 1.22265625 2.1015625 C0.81917969 1.73804688 0.41570312 1.37453125 0 1 C0 0.67 0 0.34 0 0 Z " transform="translate(360,327)" style="fill: #F4B915;"/><path d="M0 0 C22.85769903 -2.25771545 22.85769903 -2.25771545 29.2734375 2.6484375 C32.02665561 5.26902614 34.3028001 8.18533105 36.55712891 11.23657227 C38.71679121 13.87603772 41.27777177 15.95709294 43.87475586 18.15454102 C47.60229755 21.39135751 51.0318373 24.9275909 54.5 28.4375 C55.22703125 29.16904297 55.9540625 29.90058594 56.703125 30.65429688 C58.47109623 32.43389949 60.23620179 34.21626446 62 36 C66.95430101 32.00514999 71.06745756 27.74034623 75.12109375 22.8515625 C95.60415501 -0.8273899 95.60415501 -0.8273899 108.08984375 -1.96875 C115.77742511 -2.35827718 123.45856027 -1.45862006 131 0 C127.0682924 4.70745077 122.97742714 9.1641171 118.62744141 13.48608398 C118.02184387 14.09182755 117.41624634 14.69757111 116.79229736 15.32167053 C114.81441659 17.29886146 112.83303086 19.27249876 110.8515625 21.24609375 C109.46986361 22.62592516 108.08838712 24.0059793 106.7071228 25.38624573 C103.08935087 29.0002185 99.46858481 32.61117673 95.84716797 36.22149658 C92.14498223 39.91341203 88.44566229 43.60819663 84.74609375 47.30273438 C77.50018369 54.53795303 70.25110445 61.76998741 63 69 C61.88468212 68.05107732 60.77037035 67.10097203 59.65647888 66.15037537 C58.72551722 65.35693301 58.72551722 65.35693301 57.77574825 64.54746151 C55.48931345 62.55496632 53.35030499 60.44570324 51.22265625 58.28515625 C50.37896484 57.43373047 49.53527344 56.58230469 48.66601562 55.70507812 C46.93421549 53.94729449 45.20244453 52.18948212 43.47070312 50.43164062 C39.82864748 46.75624809 36.20925688 43.10871028 32.27734375 39.7421875 C26.4345405 34.72156852 20.93099065 29.34119098 15.43359375 23.94848633 C14.13806103 22.68485119 12.83454736 21.42935009 11.5234375 20.18188477 C9.61065459 18.3603115 7.72537233 16.51383478 5.84375 14.66015625 C4.96269592 13.83633202 4.96269592 13.83633202 4.06384277 12.99586487 C1.0062121 9.92323395 -0.35112623 8.0107183 -0.36523438 3.58374023 C-0.24470703 2.40110596 -0.12417969 1.21847168 0 0 Z " transform="translate(0,327)" style="fill: #F4B914;"/><path d="M0 0 C2.97816718 1.42432416 4.97931682 2.77903265 7.25 5.1875 C9.58085498 7.59180629 11.93810095 9.84466319 14.5 12 C18.71534396 15.62256122 22.59188912 19.55361184 26.5 23.5 C32.08543913 29.17500865 32.08543913 29.17500865 38 34.5 C42.19064333 38.10618186 46.08687888 41.97276883 50 45.875 C50.68449219 46.55498047 51.36898437 47.23496094 52.07421875 47.93554688 C52.70972656 48.57298828 53.34523438 49.21042969 54 49.8671875 C54.5775 50.44581543 55.155 51.02444336 55.75 51.62060547 C57 53 57 53 57 54 C20.7 54 -15.6 54 -53 54 C-49.37033587 49.76539185 -45.91940335 45.79529686 -42.00439453 41.89086914 C-41.54510056 41.43142914 -41.08580658 40.97198914 -40.6125946 40.49862671 C-39.1216965 39.00841502 -37.62730865 37.52175872 -36.1328125 36.03515625 C-35.08741675 34.99162921 -34.04224425 33.94787848 -32.99728394 32.90391541 C-30.2672716 30.17769255 -27.53426807 27.45448819 -24.80059814 24.73193359 C-22.00324846 21.94487541 -19.20878299 19.15492854 -16.4140625 16.36523438 C-10.94550306 10.90734919 -5.47377555 5.45265441 0 0 Z " transform="translate(703,429)" style="fill: #277A40;"/><path d="M0 0 C3.10664667 1.48268577 5.20090307 2.97298018 7.609375 5.44921875 C8.28226563 6.13306641 8.95515625 6.81691406 9.6484375 7.52148438 C10.34195313 8.23626953 11.03546875 8.95105469 11.75 9.6875 C16.37333564 14.4294954 21.04931324 18.97726798 26.07128906 23.29614258 C29.19296395 26.0538855 32.08747514 29.0248136 35 32 C39.28318922 36.33330498 43.59809558 40.52737918 48.24609375 44.47265625 C51.31586455 47.1458865 54.26951806 49.97940435 57 53 C57 53.33 57 53.66 57 54 C20.37 54 -16.26 54 -54 54 C-36 36 -18 18 0 0 Z " transform="translate(888,429)" style="fill: #26793F;"/><path d="M0 0 C8.47728068 6.21325415 8.47728068 6.21325415 11.78125 9.62109375 C12.39129883 10.24274414 13.00134766 10.86439453 13.62988281 11.50488281 C14.55559082 12.46152832 14.55559082 12.46152832 15.5 13.4375 C19.88291876 17.89795442 24.26389837 22.23128819 29.046875 26.265625 C32.14550592 29.01720925 35.01689295 31.99657641 37.92578125 34.9453125 C41.20498164 38.25191568 44.60391743 41.34198722 48.140625 44.3671875 C51.23725091 47.08649345 54.23535923 49.94161615 57 53 C57 53.33 57 53.66 57 54 C20.7 54 -15.6 54 -53 54 C-49.37033587 49.76539185 -45.91940335 45.79529686 -42.00439453 41.89086914 C-41.54510056 41.43142914 -41.08580658 40.97198914 -40.6125946 40.49862671 C-39.1216965 39.00841502 -37.62730865 37.52175872 -36.1328125 36.03515625 C-35.08741675 34.99162921 -34.04224425 33.94787848 -32.99728394 32.90391541 C-30.2672716 30.17769255 -27.53426807 27.45448819 -24.80059814 24.73193359 C-22.00324846 21.94487541 -19.20878299 19.15492854 -16.4140625 16.36523438 C-10.94550306 10.90734919 -5.47377555 5.45265441 0 0 Z " transform="translate(152,429)" style="fill: #26793F;"/><path d="M0 0 C4.23841665 3.54643026 8.22683371 7.18252264 12.09399414 11.12719727 C13.90096706 12.90269224 15.76307605 14.54967602 17.69140625 16.19140625 C22.94467533 20.75786285 27.77021558 25.72049274 32.64453125 30.68359375 C36.69525546 34.77875003 40.83531 38.67539517 45.20117188 42.43261719 C47.56162985 44.48936803 49.79045047 46.65777842 52 48.875 C52.763125 49.63554687 53.52625 50.39609375 54.3125 51.1796875 C56 53 56 53 56 54 C19.7 54 -16.6 54 -54 54 C-47.2482645 46.12297525 -47.2482645 46.12297525 -44.41650391 43.28710938 C-43.78209381 42.64954712 -43.14768372 42.01198486 -42.49404907 41.35510254 C-41.8282785 40.6913562 -41.16250793 40.02760986 -40.4765625 39.34375 C-39.77155609 38.63778687 -39.06654968 37.93182373 -38.34017944 37.20446777 C-36.85724622 35.72085798 -35.37306518 34.23849448 -33.88769531 32.75732422 C-31.63492295 30.5098994 -29.38752763 28.25719771 -27.140625 26.00390625 C-25.69042458 24.55436687 -24.23991388 23.10513783 -22.7890625 21.65625 C-21.79647934 20.66063049 -21.79647934 20.66063049 -20.78384399 19.64489746 C-16.88350604 15.76374823 -12.87445982 12.06587695 -8.70199585 8.4783783 C-6.71543718 6.7528246 -4.84109721 4.9419534 -3 3.0625 C-2.4225 2.47597656 -1.845 1.88945312 -1.25 1.28515625 C-0.63125 0.64900391 -0.63125 0.64900391 0 0 Z " transform="translate(1074,429)" style="fill: #277940;"/><path d="M0 0 C4.76932233 3.95752278 9.1797614 8.11121526 13.49609375 12.55859375 C15.51114215 14.52334453 17.55168343 16.35642828 19.68383789 18.18823242 C23.80515545 21.78314725 27.70267044 25.55758843 31.5625 29.4296875 C32.57763672 30.44338913 32.57763672 30.44338913 33.61328125 31.47756958 C35.02612995 32.88974374 36.43774068 34.30315749 37.84814453 35.71777344 C40.01871135 37.89375805 42.1946454 40.06427483 44.37109375 42.234375 C45.74771711 43.61165812 47.1240308 44.98925085 48.5 46.3671875 C49.15299072 47.01815399 49.80598145 47.66912048 50.47875977 48.33981323 C55 52.88501304 55 52.88501304 55 54 C19.03 54 -16.94 54 -54 54 C-50.44246062 49.84953739 -47.0649917 45.93951796 -43.2355957 42.10620117 C-42.34479813 41.21225143 -41.45400055 40.3183017 -40.53620911 39.39726257 C-39.5828608 38.4457034 -38.62938177 37.49427517 -37.67578125 36.54296875 C-36.68248668 35.54899921 -35.68934047 34.55488137 -34.69633484 33.56062317 C-32.62786984 31.49069303 -30.55763003 29.42255944 -28.48608398 27.35571289 C-25.83303373 24.70838923 -23.18453904 22.05656031 -20.5373354 19.40339184 C-18.4931127 17.35555694 -16.44651602 15.31010797 -14.3991909 13.26537514 C-13.42125274 12.28810287 -12.4440536 11.31009049 -11.46761513 10.33131981 C-10.10623751 8.96740162 -8.74130816 7.60703133 -7.3762207 6.24682617 C-6.6015596 5.47296066 -5.8268985 4.69909515 -5.02876282 3.90177917 C-3 2 -3 2 0 0 Z " transform="translate(338,429)" style="fill: #277940;"/><path d="M0 0 C10.22627383 8.59936663 19.86072852 17.72220835 29.21655273 27.25341797 C33.02392124 31.11151274 36.9447647 34.74262948 41.04980469 38.28125 C44.15863372 41.02112937 47.08103998 43.93562767 50 46.875 C50.58394531 47.45507812 51.16789063 48.03515625 51.76953125 48.6328125 C56 52.87318867 56 52.87318867 56 54 C19.7 54 -16.6 54 -54 54 C-51.30887228 50.63609035 -49.38609589 48.29596325 -46.2253418 45.65673828 C-42.08708629 42.11413578 -38.22961615 38.35805687 -34.39453125 34.4921875 C-33.70743576 33.80367706 -33.02034027 33.11516663 -32.31242371 32.40579224 C-30.14339384 30.23122673 -27.97788322 28.05319614 -25.8125 25.875 C-24.34984371 24.40731851 -22.88695496 22.93986866 -21.42382812 21.47265625 C-18.740504 18.78121351 -16.05851136 16.08845991 -13.37817383 13.39404297 C-10.58994752 10.59151359 -7.79676929 7.7940078 -5 5 C-4.071875 4.071875 -3.14375 3.14375 -2.1875 2.1875 C-1.465625 1.465625 -0.74375 0.74375 0 0 Z " transform="translate(520,429)" style="fill: #26793F;"/><path d="M0 0 C4.29468524 2.29259248 7.4720971 5.27160402 10.8125 8.75 C14.76304471 12.78751588 18.76965625 16.63008017 23.07421875 20.29296875 C26.11661695 22.98978013 28.92325809 25.91534396 31.77734375 28.80859375 C34.42572075 31.41973522 37.20880331 33.83075998 40.03125 36.25 C42.82580963 38.734053 45.41570221 41.40417512 48.03515625 44.0703125 C49.95573603 45.95652803 51.9404026 47.70528327 54 49.4375 C54.99 50.283125 55.98 51.12875 57 52 C57 52.33 57 52.66 57 53 C20.37 53 -16.26 53 -54 53 C-47.17090909 45.03272727 -47.17090909 45.03272727 -43.625 41.5 C-42.93664063 40.8090625 -42.24828125 40.118125 -41.5390625 39.40625 C-39.50092909 37.47472664 -37.43325953 35.64063019 -35.3046875 33.8125 C-30.46621711 29.60749096 -25.99447529 25.06661775 -21.5 20.5 C-16.36927561 15.28692048 -11.22667726 10.18527684 -5.66015625 5.43530273 C-3.6734936 3.71771601 -1.81833095 1.89409474 0 0 Z " transform="translate(1259,430)" style="fill: #277940;"/><path d="M0 0 C0 15.51 0 31.02 0 47 C-16.17 47 -32.34 47 -49 47 C-42.26609698 39.14377981 -42.26609698 39.14377981 -39.5390625 36.66015625 C-38.91394775 36.08330078 -38.28883301 35.50644531 -37.64477539 34.91210938 C-36.97824951 34.30173828 -36.31172363 33.69136719 -35.625 33.0625 C-30.17939223 28.02230462 -24.84749538 22.88726947 -19.62109375 17.62109375 C-19.07815674 17.07437515 -18.53521973 16.52765656 -17.97583008 15.96437073 C-15.2588323 13.22475652 -12.54982588 10.47761586 -9.84814453 7.72290039 C-8.84809562 6.71098773 -7.84793799 5.6991825 -6.84765625 4.6875 C-5.96086182 3.78386719 -5.07406738 2.88023437 -4.16040039 1.94921875 C-2 0 -2 0 0 0 Z " transform="translate(1440,436)" style="fill: #277A40;"/><path d="M0 0 C4.22544769 3.62181231 8.10074976 6.99860666 11.9375 10.9375 C15.64746477 14.69851933 19.45358751 18.23479357 23.50390625 21.625 C25 23 25 23 26 25 C17.42 25 8.84 25 0 25 C0 16.75 0 8.5 0 0 Z " transform="translate(0,458)" style="fill: #287A40;"/></svg>