<?xml version="1.0" encoding="UTF-8"?>
<!-- Generator: visioncortex VTracer -->
<svg id="svg" version="1.1" xmlns="http://www.w3.org/2000/svg" style="display: block;" viewBox="0 0 1440 810"><path d="M0 0 C475.2 0 950.4 0 1440 0 C1440 267.3 1440 534.6 1440 810 C964.8 810 489.6 810 0 810 C0 542.7 0 275.4 0 0 Z " transform="translate(0,0)" style="fill: #FEFEFE;"/><path d="M0 0 C1.66878196 0.01002751 3.33756452 0.01995474 5.00634766 0.02978516 C38.68131945 0.32442581 38.68131945 0.32442581 51.4375 4.3125 C54.16951072 7.31771179 55.27142966 9.31607794 55.9375 13.3125 C55.30369108 17.11535351 53.81171663 19.30981426 51.4375 22.3125 C48.5881221 23.73718895 46.18875318 23.42408953 43.00341797 23.41015625 C42.34297989 23.40869598 41.68254181 23.40723572 41.00209045 23.4057312 C39.5654005 23.40192159 38.12871527 23.39580124 36.6920433 23.38766479 C34.41294163 23.37490626 32.13389817 23.36838584 29.85476685 23.36352539 C24.18848689 23.35014656 18.52226155 23.32605777 12.85601807 23.30212402 C8.0770816 23.28231966 3.29816642 23.26670277 -1.48080063 23.25656128 C-3.7163346 23.25011952 -5.95178084 23.23760612 -8.18728638 23.22485352 C-9.57554042 23.2212163 -10.96379526 23.21786516 -12.35205078 23.21484375 C-13.55403107 23.20960693 -14.75601135 23.20437012 -15.99441528 23.19897461 C-19.8663074 23.32216621 -23.71856295 23.83200787 -27.5625 24.3125 C-29.8725 59.2925 -32.1825 94.2725 -34.5625 130.3125 C-30.9325 129.9825 -27.3025 129.6525 -23.5625 129.3125 C-21.15525976 129.23189577 -18.74647937 129.18479731 -16.33789062 129.18310547 C-15.03283569 129.17995331 -13.72778076 129.17680115 -12.38317871 129.17355347 C-10.99503546 129.17534381 -9.60689252 129.1773949 -8.21875 129.1796875 C-6.75866683 129.17901176 -5.29858377 129.1780395 -3.83850098 129.17678833 C-0.79613155 129.17532406 2.24620827 129.17742467 5.28857422 129.18212891 C9.15802111 129.1878254 13.0273986 129.18453954 16.89684296 129.17855644 C19.90656035 129.1749163 22.9162617 129.17610516 25.92597961 129.17868423 C27.35150664 129.17934398 28.77703519 129.17855902 30.20256042 129.17620468 C38.33986179 129.16570967 46.34931635 129.3849742 54.4375 130.3125 C54.39625 129.178125 54.355 128.04375 54.3125 126.875 C54.3092268 123.8331167 54.61373745 121.1709679 55.35107422 118.22314453 C56.58241522 112.91430615 57.27944593 107.5846474 57.9453125 102.1796875 C58.14083206 100.62557663 58.14083206 100.62557663 58.34030151 99.04006958 C58.61293619 96.86372847 58.88342196 94.68711719 59.15185547 92.51025391 C59.56224177 89.18958947 59.98183781 85.87017765 60.40234375 82.55078125 C60.66721932 80.42715219 60.93156054 78.3034564 61.1953125 76.1796875 C61.32028107 75.19410858 61.44524963 74.20852966 61.57400513 73.19308472 C62.184668 68.18924163 62.57623901 63.35335079 62.4375 58.3125 C52.25243889 56.48634875 42.43942818 56.02656045 32.12255859 56.10668945 C29.67665237 56.12508157 27.23112492 56.12719728 24.78515625 56.12695312 C11.76502665 55.16953176 11.76502665 55.16953176 0.4375 58.3125 C0.2063199 60.82926673 0.03413561 63.3251398 -0.09765625 65.84765625 C-0.14063339 66.60090683 -0.18361053 67.35415741 -0.22789001 68.13023376 C-0.36464722 70.54493289 -0.49488981 72.95993446 -0.625 75.375 C-0.71636922 77.00848752 -0.80816053 78.64195149 -0.90039062 80.27539062 C-1.12679737 84.28748134 -1.34440168 88.2999144 -1.5625 92.3125 C4.3775 92.3125 10.3175 92.3125 16.4375 92.3125 C16.28042519 86.70316212 16.28042519 86.70316212 16.07714844 81.09545898 C15.99626546 75.31950141 17.06352522 72.02756908 20.4375 67.3125 C24.14792531 64.83888312 27.13612675 64.76642722 31.4375 65.3125 C34.26767555 66.54301111 35.86082919 67.44231261 37.56518555 70.01416016 C39.32404892 74.64834425 38.51771266 79.7923547 38.32592773 84.67480469 C38.25053851 86.67322511 38.20231844 88.67260972 38.15429688 90.671875 C38.10982422 91.94289063 38.06535156 93.21390625 38.01953125 94.5234375 C37.96116089 96.26052979 37.96116089 96.26052979 37.90161133 98.03271484 C37.14642167 103.36949439 35.07109816 107.26268376 30.875 110.625 C29.97587891 111.36169922 29.97587891 111.36169922 29.05859375 112.11328125 C25.85018921 114.4867275 23.63770514 114.44109734 19.6875 114.4453125 C18.52089844 114.44660156 17.35429687 114.44789063 16.15234375 114.44921875 C14.31349609 114.44341797 14.31349609 114.44341797 12.4375 114.4375 C11.24253906 114.44136719 10.04757813 114.44523437 8.81640625 114.44921875 C-11.82850171 114.42660658 -11.82850171 114.42660658 -19.875 107.25 C-23.33225743 103.28055628 -22.72370669 98.70129649 -22.73046875 93.7265625 C-22.73546135 92.4474147 -22.73546135 92.4474147 -22.74055481 91.14242554 C-22.74562115 89.33177224 -22.74796323 87.5211096 -22.74780273 85.71044922 C-22.74996428 82.98258266 -22.76805293 80.25513739 -22.78710938 77.52734375 C-22.88214793 48.84638153 -22.88214793 48.84638153 -15.5625 41.3125 C-6.71170544 34.49074135 4.00406231 34.00180878 14.7890625 34.01171875 C15.84676849 34.00743362 16.90447449 34.0031485 17.99423218 33.99873352 C20.22124521 33.9930227 22.44827688 33.99246581 24.67529297 33.99682617 C28.03256139 33.99997195 31.38893477 33.97653401 34.74609375 33.95117188 C69.9061719 33.84758791 69.9061719 33.84758791 81.4375 43.9375 C87.25765778 50.84893737 84.83020421 63.6061097 84.12109375 72.10449219 C82.61969012 87.6973944 80.42846698 103.22464998 77.9375 118.6875 C77.74841064 119.88552246 77.55932129 121.08354492 77.36450195 122.31787109 C73.78830188 143.50562153 73.78830188 143.50562153 66.31640625 149.2265625 C60.53756428 152.5665169 56.19184538 152.37343004 49.6953125 151.92578125 C38.38494014 151.30223385 27.12770335 151.26814086 15.8046875 151.35546875 C14.04706012 151.36630929 12.28943065 151.37681539 10.53179932 151.38699341 C3.27153553 151.43092546 -3.98856248 151.4799048 -11.24853516 151.55932617 C-15.75009268 151.60785144 -20.25141575 151.63682351 -24.75320053 151.65307045 C-26.45086356 151.66292288 -28.14850152 151.68006392 -29.84601212 151.70485497 C-32.203791 151.73864219 -34.56046592 151.7474867 -36.91845703 151.75073242 C-37.60723938 151.76668457 -38.29602173 151.78263672 -39.00567627 151.79907227 C-43.97069221 151.76795152 -46.72292139 150.38209034 -50.5625 147.3125 C-54.31820054 143.1394994 -56.81108486 139.61606946 -56.828125 133.91796875 C-56.83215332 133.05792236 -56.83618164 132.19787598 -56.84033203 131.31176758 C-56.83114746 130.38388428 -56.82196289 129.45600098 -56.8125 128.5 C-56.80718262 127.51862061 -56.80186523 126.53724121 -56.79638672 125.52612305 C-56.70077537 117.9286519 -56.15801338 110.42576656 -55.41723633 102.86743164 C-54.37808367 92.05716907 -53.83002426 81.22322955 -53.26025391 70.38012695 C-52.92365942 64.06511114 -52.5545814 57.78809373 -51.77905273 51.50878906 C-51.19467552 45.582005 -51.19216526 39.58945956 -51.04492188 33.63867188 C-50.43456911 14.78683261 -50.43456911 14.78683261 -44.5625 8.3125 C-32.97076736 -1.211224 -14.17877101 -0.16858521 0 0 Z " transform="translate(145.5625,337.6875)" style="fill: #F7C903;"/><path d="M0 0 C1.72827026 0.00012085 1.72827026 0.00012085 3.49145508 0.00024414 C13.88998701 0.06612347 24.22551714 0.68370296 34.59594727 1.40551758 C41.48759189 1.87980524 48.36766061 2.27673377 55.2734375 2.47265625 C55.96188248 2.49222885 56.65032745 2.51180145 57.3596344 2.53196716 C60.62664782 2.62089556 63.89320333 2.69607562 67.16088867 2.75756836 C73.44002745 2.90817895 79.66370662 3.25172838 85.90234375 3.96875 C87.094646 4.10345703 88.28694824 4.23816406 89.51538086 4.37695312 C94.29969561 5.53122425 97.63572796 7.40650472 100.47393799 11.48538208 C104.81553303 19.85867438 104.18185119 30.46426842 104.17578125 39.6640625 C104.18124466 40.9329985 104.18670807 42.20193451 104.19233704 43.50932312 C104.20437466 46.90979409 104.20119416 50.31006907 104.19245148 53.71054459 C104.18747619 55.82260834 104.18596206 57.93465335 104.18499756 60.04672241 C104.16763135 77.89858769 103.83528055 95.68981372 102.5 113.5 C102.43696686 114.35128479 102.37393372 115.20256958 102.30899048 116.07965088 C100.22937551 143.2628326 100.22937551 143.2628326 93.5 149.328125 C88.81448615 152.31686788 83.48864684 151.69187561 78.125 151.5625 C77.00899414 151.54888428 75.89298828 151.53526855 74.74316406 151.52124023 C67.57707609 151.38588537 60.53884626 150.87223446 53.43286133 149.97241211 C48.22724695 149.31512294 43.05371603 148.87571515 37.8125 148.625 C36.99676514 148.58552246 36.18103027 148.54604492 35.34057617 148.50537109 C29.68692266 148.26716247 24.03549768 148.15281734 18.37773132 148.08201599 C14.66811018 148.03452469 10.958734 147.97367478 7.2492981 147.91360474 C4.47138813 147.87546527 1.69388484 147.85934289 -1.08422852 147.84350586 C-2.82569958 147.81728472 -4.56715596 147.79006383 -6.30859375 147.76171875 C-7.50746719 147.76464935 -7.50746719 147.76464935 -8.7305603 147.76763916 C-15.42307871 147.62073567 -18.9768646 145.18917163 -23.875 140.625 C-30.00604227 132.71459271 -28.43625885 120.04790236 -28.42578125 110.5546875 C-28.4296792 109.06739179 -28.43401608 107.58009718 -28.43876648 106.09280396 C-28.44617668 102.99493782 -28.44597415 99.89718579 -28.44067383 96.79931641 C-28.43486515 92.85104479 -28.45186891 88.90324015 -28.4750185 84.9550457 C-28.48981889 81.89048586 -28.49061938 78.82603716 -28.48750877 75.76144791 C-28.48801813 74.30634761 -28.49318252 72.85124045 -28.50332069 71.39617538 C-28.61279934 53.50135708 -28.61279934 53.50135708 -22.75 46.25 C-16.76637238 41.5485783 -10.15029306 41.06811185 -2.72753906 41.04223633 C-0.85464203 41.03266655 -0.85464203 41.03266655 1.05609131 41.02290344 C2.40718547 41.02137412 3.75828017 41.02026051 5.109375 41.01953125 C6.51173943 41.01631275 7.91410354 41.01294824 9.31646729 41.00944519 C12.2516762 41.00347217 15.18685575 41.00160334 18.12207031 41.00219727 C21.85841491 41.00229862 25.59456834 40.98866587 29.33086777 40.97142506 C32.22732382 40.96023057 35.12373481 40.95828035 38.02021027 40.95880699 C39.39633084 40.95763732 40.77245297 40.95327339 42.14855194 40.94547462 C60.41191733 40.85168103 60.41191733 40.85168103 67.3828125 44.5 C71.52696888 48.8243371 72.49599928 52.94011333 72.5 58.8125 C72.39988116 62.28090271 72.14687014 65.7287077 71.875 69.1875 C71.74593262 70.97776611 71.74593262 70.97776611 71.61425781 72.80419922 C71.31471119 76.78936354 70.97832602 80.76935507 70.625 84.75 C70.51623535 86.03406738 70.4074707 87.31813477 70.29541016 88.64111328 C69.46537149 96.94692504 68.51575709 104.72011229 62.25 110.6875 C58.9463298 112.77402855 57.19696316 113.31870781 53.32104492 113.36450195 C52.37633835 113.37733719 51.43163177 113.39017242 50.45829773 113.40339661 C49.43436417 113.41078354 48.4104306 113.41817047 47.35546875 113.42578125 C46.30474686 113.433853 45.25402496 113.44192474 44.17146301 113.45024109 C41.94464776 113.46408815 39.71781123 113.47480751 37.4909668 113.48266602 C34.08666724 113.49987781 30.6833389 113.54375913 27.27929688 113.58789062 C25.11719465 113.59801745 22.95508416 113.60653358 20.79296875 113.61328125 C19.26617744 113.63954338 19.26617744 113.63954338 17.70854187 113.66633606 C13.3479507 113.65296601 10.64154977 113.63293502 6.81762695 111.41088867 C1.71523229 105.57106107 2.50813168 99.71894572 2.5 92.25 C2.47550781 91.06986328 2.45101563 89.88972656 2.42578125 88.67382812 C2.41998047 86.96549805 2.41998047 86.96549805 2.4140625 85.22265625 C2.40584473 84.1850415 2.39762695 83.14742676 2.38916016 82.07836914 C2.99639195 78.46518739 4.36450511 76.8047187 6.875 74.1875 C10.10359847 72.57320077 13.38493653 72.59179343 16.875 73.1875 C19.90008145 74.92352105 22.29290069 77.02330137 23.875 80.1875 C23.875 84.1475 23.875 88.1075 23.875 92.1875 C31.795 92.1875 39.715 92.1875 47.875 92.1875 C48.535 82.2875 49.195 72.3875 49.875 62.1875 C21.66 62.6825 21.66 62.6825 -7.125 63.1875 C-6.795 83.9775 -6.465 104.7675 -6.125 126.1875 C0.413125 126.125625 6.95125 126.06375 13.6875 126 C28.44341616 125.93707969 43.0526914 126.2689906 57.75 127.625 C58.85029037 127.72622665 58.85029037 127.72622665 59.97280884 127.82949829 C66.30813134 128.42502129 72.60353645 129.08729526 78.875 130.1875 C78.93558594 128.89714844 78.99617187 127.60679687 79.05859375 126.27734375 C79.14305881 124.55988745 79.22770377 122.84243998 79.3125 121.125 C79.35181641 120.27744141 79.39113281 119.42988281 79.43164062 118.55664062 C79.47353516 117.72197266 79.51542969 116.88730469 79.55859375 116.02734375 C79.59525146 115.26800537 79.63190918 114.50866699 79.66967773 113.72631836 C79.875 111.1875 79.875 111.1875 80.375 108.03173828 C80.89273425 104.05115061 81.04801131 100.14666472 81.08032227 96.14086914 C81.09022186 95.36931488 81.10012146 94.59776062 81.11032104 93.80282593 C81.14167427 91.27613292 81.16658886 88.74942117 81.19140625 86.22265625 C81.21199844 84.46145668 81.23299548 82.70026179 81.25437927 80.93907166 C81.30936612 76.32123634 81.35887777 71.70335817 81.40722656 67.08544922 C81.45761319 62.3661725 81.51320936 57.64695741 81.56835938 52.92773438 C81.67565455 43.68104234 81.77716219 34.4342966 81.875 25.1875 C80.74178314 25.16815903 79.60856628 25.14881805 78.44100952 25.12889099 C58.25342772 24.77979034 38.09863424 24.19088519 17.94067383 23.00015259 C15.82129607 22.87550596 13.70165999 22.75517332 11.58178711 22.63925171 C8.59258746 22.4736331 5.60500333 22.29034353 2.6171875 22.1015625 C1.73340424 22.05458725 0.84962097 22.007612 -0.0609436 21.95921326 C-5.37598281 21.59635348 -9.39025302 20.67652325 -14.125 18.1875 C-16.62537398 15.28383989 -17.08608222 13.49884227 -17.5625 9.6875 C-17.05386205 5.6183964 -15.99154931 4.05404931 -13.125 1.1875 C-9.2069875 -0.77150625 -4.30536753 -0.00283808 0 0 Z " transform="translate(464.125,340.8125)" style="fill: #F7C902;"/><path d="M0 0 C0.76601028 -0.00131424 1.53202057 -0.00262848 2.32124329 -0.00398254 C4.84474044 -0.00238914 7.36728967 0.02297705 9.890625 0.05078125 C11.65681894 0.06083708 13.42301362 0.07076329 15.18920898 0.08056641 C28.53689871 0.18823258 41.86942223 0.63520741 55.203125 1.23828125 C56.10744263 1.2773056 57.01176025 1.31632996 57.94348145 1.35653687 C60.5215262 1.4710493 63.09858973 1.59825811 65.67578125 1.73046875 C66.43143875 1.76391891 67.18709625 1.79736908 67.96565247 1.83183289 C73.67184132 2.15102725 79.17805874 2.60200384 83.578125 6.55078125 C85.5742129 10.14373947 85.64808774 12.3035793 85.140625 16.36328125 C83.48923195 19.90198065 82.42457271 21.17398278 79.140625 23.36328125 C76.14599609 23.62207031 76.14599609 23.62207031 72.4140625 23.62890625 C71.38755081 23.63286407 71.38755081 23.63286407 70.34030151 23.63690186 C68.06523338 23.64077496 65.79064459 23.62793364 63.515625 23.61328125 C62.73682983 23.61150879 61.95803467 23.60973633 61.15563965 23.60791016 C41.4578973 23.55587121 21.80108825 22.49395335 2.140625 21.36328125 C2.25164821 30.36348921 2.37738452 39.36345044 2.515625 48.36328125 C2.52579021 49.02668392 2.53595543 49.69008659 2.54642868 50.37359238 C2.83052323 68.66941332 3.33121289 86.88614155 4.73828125 105.1328125 C5.21735907 111.54718845 5.22965139 117.93425714 5.140625 124.36328125 C40.39406315 124.82459414 40.39406315 124.82459414 75.55273438 122.63330078 C80.07739778 122.16119911 84.60956134 121.76850276 89.140625 121.36328125 C89.19468506 120.397854 89.24874512 119.43242676 89.30444336 118.43774414 C90.00010471 106.21792691 90.84122427 94.00984589 91.703125 81.80078125 C91.84318669 79.80664679 91.98316116 77.81250619 92.12304688 75.81835938 C92.4612375 70.999929 92.80059619 66.18158224 93.140625 61.36328125 C87.76924641 61.45756976 82.39827915 61.56382132 77.02734375 61.68066406 C75.20416563 61.71870066 73.38091891 61.75359531 71.55761719 61.78515625 C58.81409094 61.82492074 58.81409094 61.82492074 46.30419922 63.94775391 C44.140625 64.36328125 44.140625 64.36328125 37.140625 64.36328125 C37.140625 73.60328125 37.140625 82.84328125 37.140625 92.36328125 C48.525625 91.37328125 48.525625 91.37328125 60.140625 90.36328125 C60.2334375 87.08390625 60.2334375 87.08390625 60.328125 83.73828125 C60.87603249 75.76945027 60.87603249 75.76945027 63.578125 72.55078125 C67.11070276 69.53516609 69.25900028 69.16925834 73.875 68.7421875 C76.82406946 69.5506393 78.82963812 70.9400559 80.91015625 73.16772461 C83.6514008 78.05899687 82.90507393 83.91919508 82.765625 89.36328125 C82.77207031 90.62140625 82.77851562 91.87953125 82.78515625 93.17578125 C82.649979 104.77644694 82.649979 104.77644694 78.140625 109.36328125 C73.85716166 112.95192255 69.55214176 112.86601801 64.203125 112.98828125 C58.17237608 113.15346538 58.17237608 113.15346538 52.19140625 113.86328125 C47.88101841 114.56972125 43.62718045 114.66699283 39.265625 114.73828125 C38.40582031 114.77566406 37.54601562 114.81304687 36.66015625 114.8515625 C30.25001568 114.93910615 26.1035561 113.45501052 21.140625 109.36328125 C14.84303665 101.80617522 15.45888691 89.65429564 15.140625 80.36328125 C15.10662598 79.39648438 15.07262695 78.4296875 15.03759766 77.43359375 C14.93998056 74.22263534 14.87900557 71.01279926 14.828125 67.80078125 C14.79831543 66.7655835 14.76850586 65.73038574 14.73779297 64.66381836 C14.67627718 56.64386149 16.21902874 53.58452841 21.578125 47.67578125 C26.34841495 43.9799873 32.36020488 43.4284943 38.140625 42.36328125 C38.80595245 42.2363237 39.47127991 42.10936615 40.1567688 41.9785614 C52.29098716 39.6969417 64.11149646 38.8601082 76.45117188 38.91723633 C79.29888259 38.92588222 82.14466625 38.89660867 84.9921875 38.86523438 C86.83593691 38.86362486 88.67968981 38.86419511 90.5234375 38.8671875 C91.35795441 38.85595352 92.19247131 38.84471954 93.05227661 38.83314514 C99.54970554 38.90944142 105.88188041 40.32903473 110.77102661 44.88136292 C118.33156801 53.7519725 115.69276969 68.10529639 114.85791016 79.07958984 C114.27211051 85.30845804 113.57364565 91.52259272 112.86328125 97.73828125 C112.27073498 102.94857659 111.86892075 108.12625546 111.640625 113.36328125 C110.54090839 132.59794725 110.54090839 132.59794725 103.97265625 139.0703125 C96.80205759 144.13101219 86.93542162 144.25820389 78.46337891 145.12060547 C76.10646608 145.36685009 73.75527388 145.64813623 71.40234375 145.9296875 C59.42250777 147.25887719 47.45384437 147.59396377 35.41064453 147.66082764 C33.67558541 147.67063679 31.9405448 147.68500695 30.20556641 147.70440674 C-1.58933136 148.01547063 -1.58933136 148.01547063 -11.859375 140.36328125 C-16.32998926 133.56726408 -16.68626809 126.03752667 -17.125 118.13671875 C-17.2083963 116.85505829 -17.2917926 115.57339783 -17.37771606 114.25289917 C-17.59996915 110.79699898 -17.79828419 107.3401429 -17.98949432 103.88240051 C-18.10972768 101.73197348 -18.23603788 99.58198238 -18.36407471 97.43200684 C-19.4853306 78.4970041 -20.23670824 59.58604101 -20.234375 40.61328125 C-20.23618774 39.65299011 -20.23800049 38.69269897 -20.23986816 37.70330811 C-20.23441561 12.51960232 -20.23441561 12.51960232 -16.109375 5.30078125 C-11.09649222 0.98413219 -6.47484947 -0.0830797 0 0 Z " transform="translate(811.859375,335.63671875)" style="fill: #F7C904;"/><path d="M0 0 C1.14521622 -0.01137497 1.14521622 -0.01137497 2.31356812 -0.02297974 C12.02328636 -0.10236012 21.65366983 0.03164427 30.1875 5.1875 C34.57238759 9.98347081 35.56564288 14.28074698 35.42749023 20.67578125 C35.40924147 21.71754265 35.40924147 21.71754265 35.39062405 22.78034973 C35.34402173 24.97977521 35.27070708 27.17667172 35.1875 29.375 C35.16178547 30.06768982 35.13607094 30.76037964 35.10957718 31.47406006 C34.90975889 36.50671025 34.63348982 41.53412394 34.34765625 46.5625 C34.26000794 48.16038052 34.17273091 49.75828145 34.08580017 51.35620117 C33.85826736 55.51922438 33.62546048 59.68193598 33.39154053 63.84460449 C33.20322844 67.21116019 33.01862679 70.57791442 32.8342371 73.94468689 C32.13691581 86.67536312 31.4388852 99.40602646 30.66503906 112.13232422 C30.5496579 114.0389534 30.5496579 114.0389534 30.4319458 115.98410034 C30.12767137 120.20492995 29.62250611 124.33709307 28.875 128.5 C28.76994141 129.18835938 28.66488281 129.87671875 28.55664062 130.5859375 C27.47844075 136.76054661 25.40157159 140.73332651 20.34594727 144.48193359 C15.03422924 147.3841935 9.24345917 147.19855475 3.3203125 147.421875 C1.43610847 147.51360741 1.43610847 147.51360741 -0.48616028 147.60719299 C-3.85843027 147.76636219 -7.23049036 147.90872317 -10.6038475 148.04135513 C-12.689492 148.12507997 -14.77474819 148.21534214 -16.86001587 148.30795288 C-32.7319965 149.01267623 -48.61033323 149.65163715 -64.5 149.6875 C-65.75216309 149.69297852 -67.00432617 149.69845703 -68.29443359 149.70410156 C-77.36207176 149.63003833 -86.63423517 149.52779842 -93.8125 143.375 C-98.53658905 138.12601217 -99.06698853 132.15103497 -99.8125 125.375 C-99.89935059 124.62984131 -99.98620117 123.88468262 -100.07568359 123.11694336 C-101.07725923 113.20637943 -101.03391039 103.26161947 -101.05273438 93.31079102 C-101.06251049 90.18414392 -101.09364932 87.05813622 -101.125 83.93164062 C-101.13152569 81.91927467 -101.13677786 79.9069041 -101.140625 77.89453125 C-101.1529718 76.97243362 -101.1653186 76.050336 -101.17803955 75.10029602 C-101.1529402 67.72761363 -100.19526322 61.17474678 -95.3125 55.4375 C-88.70514238 49.98642996 -81.60020078 49.14264446 -73.3359375 48.5234375 C-72.5398558 48.45936203 -71.74377411 48.39528656 -70.92356873 48.32926941 C-68.3455154 48.12638146 -65.76679746 47.93637069 -63.1875 47.75 C-62.30710052 47.6852951 -61.42670105 47.62059021 -60.5196228 47.55392456 C-48.55959408 46.68872523 -36.61692439 46.04691263 -24.625 45.9375 C-23.39249512 45.9154248 -22.15999023 45.89334961 -20.89013672 45.87060547 C-19.19074951 45.87471436 -19.19074951 45.87471436 -17.45703125 45.87890625 C-16.48096924 45.87705322 -15.50490723 45.8752002 -14.49926758 45.87329102 C-11.01721334 46.52350651 -9.35873069 47.95844734 -6.8125 50.375 C-3.64634712 55.12422931 -4.47443219 60.16209848 -4.5 65.75 C-4.50519653 67.55730591 -4.50519653 67.55730591 -4.51049805 69.40112305 C-4.60218141 77.07061382 -5.05257626 84.59202283 -6.125 92.1875 C-6.24254639 93.03296387 -6.36009277 93.87842773 -6.48120117 94.74951172 C-7.54905642 101.44322418 -9.48255228 106.87785661 -14.8125 111.375 C-17.93748885 112.41666295 -20.30018847 112.56022845 -23.58203125 112.65625 C-24.71833984 112.69363281 -25.85464844 112.73101562 -27.02539062 112.76953125 C-28.21326172 112.80433594 -29.40113281 112.83914063 -30.625 112.875 C-32.96495552 112.94423704 -35.30480886 113.01703779 -37.64453125 113.09375 C-38.68327393 113.12404297 -39.7220166 113.15433594 -40.79223633 113.18554688 C-43.85764491 113.37783182 -46.79163867 113.83130902 -49.8125 114.375 C-54.41084936 114.83559 -57.70173347 115.03673325 -61.75 112.625 C-66.65377492 107.27542736 -66.27547579 101.95804059 -66.375 95 C-66.44944336 93.45699219 -66.44944336 93.45699219 -66.52539062 91.8828125 C-66.62524388 84.50318133 -66.62524388 84.50318133 -64.34179688 81.33349609 C-61.24337466 78.55858077 -59.35411171 77.46838133 -55.1875 76.75 C-51.05662854 77.5149762 -49.51597565 78.13082922 -46.8125 81.375 C-45.80577527 84.7202624 -45.31585311 87.89728758 -44.8125 91.375 C-39.2025 91.375 -33.5925 91.375 -27.8125 91.375 C-27.8125 88.735 -27.8125 86.095 -27.8125 83.375 C-27.59582867 80.6781334 -27.19595072 78.05915501 -26.8125 75.375 C-26.71710938 74.69566406 -26.62171875 74.01632812 -26.5234375 73.31640625 C-26.29134854 71.66857467 -26.05264047 70.02167749 -25.8125 68.375 C-46.68612296 68.83763771 -46.68612296 68.83763771 -67.5 70.375 C-68.31114258 70.4579834 -69.12228516 70.5409668 -69.95800781 70.62646484 C-73.05754007 70.97018204 -75.84502024 71.38584008 -78.8125 72.375 C-79.44263598 99.46793805 -79.44263598 99.46793805 -76.8125 126.375 C-74.99444123 128.19305877 -72.16617703 127.50540763 -69.72265625 127.5078125 C-68.46259766 127.50910156 -67.20253906 127.51039063 -65.90429688 127.51171875 C-65.24163818 127.50962402 -64.57897949 127.5075293 -63.89624023 127.50537109 C-61.91455665 127.50010511 -59.93285362 127.50580034 -57.95117188 127.51171875 C-51.64008786 127.5053213 -45.4496444 127.3532052 -39.17993164 126.62890625 C-34.79854689 126.1590042 -30.40092787 126.0008906 -26 125.8125 C-25.12408203 125.76931641 -24.24816406 125.72613281 -23.34570312 125.68164062 C-13.15016931 125.23403182 -3.04997856 125.375 7.1875 125.375 C10.1575 73.895 10.1575 73.895 13.1875 21.375 C-5.82972144 22.092064 -5.82972144 22.092064 -24.8125 23.375 C-28.78218996 23.57649786 -32.74734282 23.75932513 -36.71875 23.91015625 C-38.34858826 23.97462196 -38.34858826 23.97462196 -40.01135254 24.04039001 C-42.29023296 24.12985958 -44.56916491 24.21802552 -46.84814453 24.30493164 C-50.30386859 24.43716971 -53.75935158 24.57473965 -57.21484375 24.71289062 C-59.44530009 24.79979815 -61.67576849 24.88639699 -63.90625 24.97265625 C-65.430224 25.03357201 -65.430224 25.03357201 -66.98498535 25.09571838 C-69.92730089 25.20608692 -72.86914575 25.29727956 -75.8125 25.375 C-76.90062988 25.40488007 -77.98875977 25.43476013 -79.10986328 25.46554565 C-80.18155762 25.4826358 -81.25325195 25.49972595 -82.35742188 25.51733398 C-83.81142395 25.54451759 -83.81142395 25.54451759 -85.2947998 25.57225037 C-87.8125 25.375 -87.8125 25.375 -91 23.5 C-94.05850397 19.91416776 -94.20146904 17.23119396 -94.171875 12.63671875 C-93.60193134 9.04979071 -91.61023951 7.50661106 -88.8125 5.375 C-82.51500494 2.22625247 -72.97687418 3.01888611 -66.01953125 2.62109375 C-64.89114838 2.55564865 -63.7627655 2.49020355 -62.60018921 2.42277527 C-41.74432538 1.23246743 -20.89419575 0.07961276 0 0 Z " transform="translate(1172.8125,319.625)" style="fill: #C42220;"/><path d="M0 0 C0.92232422 -0.00511093 1.84464844 -0.01022186 2.79492188 -0.01548767 C5.85211637 -0.02941617 8.90908608 -0.02842363 11.96630859 -0.02612305 C14.09280481 -0.03000985 16.21930025 -0.03434448 18.34579468 -0.03910828 C22.80965689 -0.0465787 27.27344005 -0.04627446 31.73730469 -0.04101562 C37.44348422 -0.03523768 43.1493374 -0.05210752 48.85546303 -0.0753603 C53.25139239 -0.09013592 57.64724402 -0.09096382 62.04319382 -0.08785057 C64.14582335 -0.08836244 66.24845738 -0.09357493 68.35106277 -0.10366249 C71.3019613 -0.1160756 74.25223556 -0.10920457 77.203125 -0.09765625 C78.06372528 -0.10529999 78.92432556 -0.11294373 79.81100464 -0.12081909 C86.65082378 -0.06200945 93.22581583 0.91520554 98.55224609 5.4621582 C100.78329683 9.82725746 100.58647617 13.9685326 99.38208008 18.62304688 C98.46448373 21.36938722 97.4618014 24.07015671 96.42724609 26.7746582 C96.03085938 27.84159912 95.63447266 28.90854004 95.22607422 30.0078125 C94.3261066 32.42386126 93.42122359 34.8374666 92.50878906 37.2487793 C90.87108373 41.58014765 89.26085544 45.92156651 87.64990234 50.26293945 C81.2649688 67.44165211 74.7700104 84.57972448 68.20214844 101.68930054 C67.49193948 103.5411417 66.78352594 105.39367272 66.07714844 107.24697876 C62.35632853 117.00034604 58.48108389 126.65982683 54.23193359 136.1965332 C53.68546677 137.43200897 53.68546677 137.43200897 53.12796021 138.69244385 C48.07846483 149.84357566 48.07846483 149.84357566 44.01708984 152.6262207 C41.77847494 153.34223241 39.90261591 153.60892389 37.55224609 153.6496582 C36.81103516 153.67801758 36.06982422 153.70637695 35.30615234 153.7355957 C32.01426982 153.08054994 30.38691343 151.58465582 27.98974609 149.2746582 C20.94167194 137.63090996 17.85704466 121.83141299 14.58349609 108.76293945 C10.67162338 93.22362943 5.71493443 78.12440628 0.55224609 62.9621582 C0.19157043 61.89992035 -0.16910522 60.8376825 -0.54071045 59.74325562 C-1.60705095 56.60986391 -2.67960106 53.47870732 -3.75634766 50.34887695 C-4.10491821 49.33488327 -4.45348877 48.32088959 -4.81262207 47.27616882 C-6.55060636 42.27680329 -8.36051012 37.32418619 -10.32714844 32.40991211 C-10.69937027 31.47331253 -11.0715921 30.53671295 -11.45509338 29.57173157 C-12.15481639 27.82932286 -12.86905814 26.09263479 -13.60142517 24.36369324 C-15.88873154 18.67638895 -16.86541198 13.40932455 -16.01025391 7.2746582 C-11.90158182 0.4740975 -7.44067476 -0.02112145 0 0 Z " transform="translate(1250.01025390625,318.725341796875)" style="fill: #F7C902;"/><path d="M0 0 C1.11521027 -0.01283524 2.23042053 -0.02567047 3.37942505 -0.03889465 C5.19650467 -0.04997505 5.19650467 -0.04997505 7.05029297 -0.0612793 C8.29366425 -0.06935104 9.53703552 -0.07742279 10.81808472 -0.08573914 C13.45607234 -0.09959305 16.09393446 -0.11060444 18.73193359 -0.11816406 C21.42845402 -0.12700299 24.12445559 -0.14782317 26.82080078 -0.1796875 C30.70995634 -0.22239663 34.59843186 -0.23854108 38.48779297 -0.2487793 C39.687034 -0.26628738 40.88627502 -0.28379547 42.12185669 -0.30183411 C49.12406989 -0.2837713 53.72308876 0.38707192 59.66748047 4.17700195 C61.50732422 6.17700195 61.50732422 6.17700195 62.60498047 8.17700195 C62.98525391 8.83700195 63.36552734 9.49700195 63.75732422 10.17700195 C66.7957778 16.8537755 65.90957385 24.49319566 65.91748047 31.67700195 C65.91915222 32.47535461 65.92082397 33.27370728 65.92254639 34.09625244 C65.92456026 50.601516 65.21275937 67.07531544 64.3915863 83.55667114 C64.29334396 85.53461704 64.19726053 87.51266978 64.10119629 89.49072266 C62.00933137 131.95249838 62.00933137 131.95249838 55.35498047 138.42700195 C49.07554712 142.51593529 43.0806329 142.47207836 35.82763672 142.44262695 C34.78731796 142.44454041 33.74699921 142.44645386 32.67515564 142.44842529 C30.48061887 142.44978295 28.28607396 142.44611587 26.09155273 142.43774414 C22.74493224 142.42704973 19.39884985 142.43764832 16.05224609 142.45043945 C13.91487512 142.44911757 11.77750449 142.44655459 9.64013672 142.44262695 C8.64514664 142.44667542 7.65015656 142.45072388 6.62501526 142.45489502 C-5.67677638 142.37248683 -5.67677638 142.37248683 -10.29345703 138.5559082 C-10.76009766 137.95649414 -11.22673828 137.35708008 -11.70751953 136.73950195 C-12.43068359 135.84424805 -12.43068359 135.84424805 -13.16845703 134.9309082 C-15.86926218 130.86157428 -15.48550902 126.61174224 -15.45751953 121.92700195 C-15.45377319 121.12303482 -15.45002686 120.31906769 -15.44616699 119.49073792 C-15.39319997 113.24355118 -15.16654655 107.02146213 -14.85595703 100.7824707 C-14.22076016 87.10625729 -14.0275073 73.42782574 -13.83251953 59.73950195 C-13.71311994 51.36981376 -13.57767337 43.00103591 -13.39892578 34.63238525 C-13.35445784 32.31853993 -13.31938336 30.004496 -13.29345703 27.69036865 C-13.25579634 24.38170065 -13.18795735 21.07486866 -13.11376953 17.7668457 C-13.10994263 16.78253067 -13.10611572 15.79821564 -13.10217285 14.78407288 C-12.97260649 10.30049976 -12.78804096 7.14530517 -9.90869141 3.57763672 C-6.34891108 0.26041535 -4.75146298 0.04753359 0 0 Z " transform="translate(616.33251953125,342.822998046875)" style="fill: #1E6B35;"/><path d="M0 0 C6.56740491 1.9826128 9.98843024 7.44049366 13.24780273 13.20800781 C14.40322717 15.49341889 15.49676701 17.7964415 16.5625 20.125 C16.94962158 20.96119873 17.33674316 21.79739746 17.7355957 22.65893555 C22.87754548 33.92631532 26.45372531 45.38683114 29.62744141 57.33203125 C31.67852775 64.99847238 34.02121618 72.54518575 36.4621582 80.09521484 C38.45270987 86.25704993 40.36064379 92.43360196 42.14550781 98.65820312 C43.24595438 102.4869542 44.40666626 106.28613642 45.640625 110.07421875 C52.41753832 131.10459955 52.41753832 131.10459955 49.109375 139.171875 C46.39268127 143.55480755 42.92623337 145.55956472 38 147 C34.13789635 147.61196725 30.27567195 147.87979104 26.375 148.125 C24.70195801 148.24174072 24.70195801 148.24174072 22.99511719 148.36083984 C19.66413115 148.58736969 16.33236176 148.79486847 13 149 C11.33072784 149.114564 9.66145688 149.22914548 7.9921875 149.34375 C-2.92007194 150.03061417 -13.86443855 150.18202907 -24.79577637 150.28509521 C-26.45886694 150.30320473 -28.12190051 150.32786634 -29.78479004 150.35943604 C-46.49126263 150.65862252 -46.49126263 150.65862252 -53 146 C-56.40315852 141.91128723 -57.36950977 138.70659254 -57.25 133.27636719 C-56.76918525 128.89832351 -55.22458845 124.87863484 -53.75 120.75 C-53.01868346 118.63180293 -52.28827579 116.51329193 -51.55859375 114.39453125 C-51.15366699 113.23002441 -50.74874023 112.06551758 -50.33154297 110.86572266 C-48.02393145 104.19762865 -45.81984464 97.49428232 -43.59655762 90.79772949 C-42.58731888 87.75964278 -41.57500796 84.72258596 -40.56211853 81.68571472 C-40.07773803 80.23299842 -39.59381624 78.78012908 -39.11036682 77.32710266 C-37.95674669 73.86085764 -36.79741426 70.3967798 -35.6237793 66.93725586 C-33.24412839 59.90502424 -31.05169079 52.873723 -29.1875 45.6875 C-26.88603481 37.08349004 -24.44366894 28.52812448 -21.875 20 C-21.38809692 18.3442395 -21.38809692 18.3442395 -20.89135742 16.6550293 C-17.17233745 4.4537358 -13.5536109 -1.18788831 0 0 Z " transform="translate(1000,325)" style="fill: #1D6A35;"/><path d="M0 0 C0.77307495 -0.00133942 1.5461499 -0.00267883 2.34265137 -0.00405884 C15.53675871 0.00082537 28.65483813 0.60814488 41.8125 1.5625 C42.67189178 1.62135376 43.53128357 1.68020752 44.41671753 1.74084473 C46.87810885 1.91316367 49.33736941 2.10352325 51.796875 2.30078125 C52.5163179 2.35093887 53.2357608 2.4010965 53.977005 2.45277405 C60.38057988 3.0116912 65.9599602 4.53702408 71.03515625 8.671875 C74.42581141 13.32922774 73.66105234 19.00148367 73.5 24.5 C73.48187256 25.73476074 73.46374512 26.96952148 73.44506836 28.24169922 C73.08020557 49.40766961 72.35878818 70.77733356 70.27026367 91.84667969 C69.97571524 95.25388855 69.87519962 98.65884358 69.77197266 102.07641602 C69.4697071 111.86684966 68.75691071 121.57592043 67.6875 131.3125 C67.5735791 132.41215088 67.4596582 133.51180176 67.34228516 134.64477539 C66.54310216 141.50718589 65.77366591 146.90853853 60.3125 151.625 C56.43028669 153.56610666 54.34852784 153.9388259 50.0625 153.25 C43.56087885 149.07431093 40.59960724 142.82089487 36.9375 136.1875 C35.94465889 134.42244913 34.94736085 132.65996383 33.94995117 130.89749146 C33.28012357 129.71310522 32.61166592 128.52794315 31.94458008 127.3420105 C28.98856247 122.09061705 25.92640629 116.90892121 22.8125 111.75 C22.32700684 110.94353027 21.84151367 110.13706055 21.34130859 109.30615234 C19.01079424 105.44444849 16.66284124 101.59398692 14.296875 97.75390625 C4.00232624 81.04338226 -5.60992802 63.9808128 -14.9609375 46.7265625 C-16.99077506 42.98258018 -19.03847347 39.24920088 -21.1015625 35.5234375 C-21.60937256 34.60570557 -22.11718262 33.68797363 -22.64038086 32.74243164 C-23.60800217 30.99574867 -24.57747635 29.25009046 -25.54907227 27.50561523 C-25.98018311 26.72645752 -26.41129395 25.9472998 -26.85546875 25.14453125 C-27.42430786 24.12129761 -27.42430786 24.12129761 -28.00463867 23.07739258 C-30.32056661 18.54069523 -30.42876538 14.23283461 -29.9375 9.25 C-28.33148883 5.55617431 -26.46781683 3.21128713 -22.9375 1.25 C-15.32805982 -0.09725659 -7.69885015 0.00784516 0 0 Z " transform="translate(342.9375,333.75)" style="fill: #C42220;"/><path d="M0 0 C5.51689866 3.67313096 7.6715453 7.6354075 10.25 13.625 C11.03425308 15.35966288 11.82211062 17.09269998 12.61328125 18.82421875 C13.01111816 19.69868652 13.40895508 20.5731543 13.81884766 21.47412109 C15.56143778 25.20062738 17.48808225 28.8160943 19.4375 32.4375 C35.13094938 61.88811151 49.83288994 91.93813227 62.375 122.875 C62.93876343 124.22911987 62.93876343 124.22911987 63.51391602 125.6105957 C65.65960039 131.07106408 66.92258768 136.11378702 66 142 C64.1875 145.375 64.1875 145.375 62 148 C61.525625 148.598125 61.05125 149.19625 60.5625 149.8125 C50.18963269 157.69587916 22.14511635 153.18667663 9.34503174 153.28610229 C7.41571764 153.30361869 5.48645247 153.32790774 3.55731201 153.35916138 C0.80749324 153.40136817 -1.94130241 153.41674395 -4.69140625 153.42578125 C-5.51144638 153.44324402 -6.33148651 153.46070679 -7.17637634 153.47869873 C-12.8048598 153.4579258 -17.38640622 152.36019775 -22 149 C-27.03102029 142.88628959 -26.44929468 135.82986223 -25.75317383 128.34664917 C-25.41430917 125.49656454 -25.0396506 122.65302146 -24.65625 119.80859375 C-22.93719214 106.27812716 -21.83604817 92.72214238 -20.80828857 79.12423706 C-20.49475509 74.97882337 -20.17140832 70.83420873 -19.84619141 66.68969727 C-19.73707898 65.29783725 -19.62797859 63.90597629 -19.51889038 62.51411438 C-19.46528728 61.83023462 -19.41168419 61.14635487 -19.35645676 60.44175148 C-18.74194953 52.59019713 -18.13320092 44.73819384 -17.53027344 36.88574219 C-17.21352033 32.77254278 -16.88564739 28.66042453 -16.54614258 24.54904175 C-16.43360099 23.16051369 -16.32555998 21.7716122 -16.22241211 20.38235474 C-16.08415234 18.52355142 -15.92930056 16.66600384 -15.7734375 14.80859375 C-15.69528809 13.81657959 -15.61713867 12.82456543 -15.53662109 11.80249023 C-14.74513272 7.66896201 -13.13074524 4.2563836 -10.3125 1.125 C-6.92698793 -0.52200587 -3.60823356 -0.97589235 0 0 Z " transform="translate(278,337)" style="fill: #1E6B36;"/><path d="M0 0 C4.66308199 -0.02468646 9.32612608 -0.04285349 13.98925781 -0.05493164 C15.57617861 -0.05996588 17.16309477 -0.06679369 18.75 -0.07543945 C21.02865749 -0.08754482 23.30725376 -0.09323733 25.5859375 -0.09765625 C26.65320572 -0.10539818 26.65320572 -0.10539818 27.74203491 -0.11329651 C32.77225659 -0.11387171 32.77225659 -0.11387171 35 1 C35.38898023 25.24045018 34.88379476 49.35241897 33.5625 73.5625 C33.49501556 74.82320313 33.42753113 76.08390625 33.35800171 77.3828125 C33.16369201 80.96528627 32.96105106 84.54715373 32.75390625 88.12890625 C32.69343109 89.21551041 32.63295593 90.30211456 32.57064819 91.42164612 C32.51067657 92.40857956 32.45070496 93.395513 32.38891602 94.41235352 C32.31230492 95.71125267 32.31230492 95.71125267 32.23414612 97.03639221 C32 99 32 99 31 100 C28.09469731 100.10257559 25.21784547 100.13846106 22.3125 100.125 C21.1359082 100.13080078 21.1359082 100.13080078 19.93554688 100.13671875 C14.82175949 100.12855628 9.75717276 99.86841038 4.65698242 99.49169922 C3.40713058 99.40008514 2.15727875 99.30847107 0.86955261 99.21408081 C-0.07739975 99.14343414 -1.02435211 99.07278748 -2 99 C-1.89257536 86.53491097 -1.7799576 74.06988081 -1.66066074 61.60489941 C-1.60543411 55.81726691 -1.55201444 50.02962936 -1.50268555 44.24194336 C-1.45503828 38.65928494 -1.40269522 33.07668871 -1.34705925 27.49410439 C-1.32663736 25.36141821 -1.30792401 23.22871498 -1.29092598 21.09599876 C-1.26687841 18.11496171 -1.23682415 15.13404244 -1.20532227 12.15307617 C-1.1995668 11.2661911 -1.19381134 10.37930603 -1.18788147 9.46554565 C-1.17809265 8.65366287 -1.16830383 7.84178009 -1.15821838 7.0052948 C-1.15176583 6.30012317 -1.14531328 5.59495153 -1.1386652 4.86841106 C-1 3 -1 3 0 0 Z " transform="translate(625,364)" style="fill: #FCFDFC;"/><path d="M0 0 C3.27981751 2.06771104 4.84746007 3.77119011 7 7 C7.26006222 9.5388155 7.26006222 9.5388155 7.27415466 12.6353302 C7.28911736 14.3954821 7.28911736 14.3954821 7.30438232 16.19119263 C7.305047 17.48008392 7.30571167 18.76897522 7.30639648 20.09692383 C7.31401737 21.46692863 7.32244475 22.83692916 7.33161926 24.20692444 C7.35358022 27.93017964 7.36236546 31.6533527 7.36744571 35.37666535 C7.37108788 37.70328068 7.37732725 40.02987444 7.3844471 42.35648155 C7.40894867 50.47472454 7.42199468 58.59290357 7.42553711 66.71118164 C7.42917134 74.27585336 7.45905649 81.84011908 7.50094169 89.40466672 C7.53564837 95.90074739 7.55108562 102.39669356 7.55178314 108.89286631 C7.55257595 112.77204269 7.56131499 116.65080574 7.58978081 120.52988625 C7.61596795 124.1801697 7.61816393 127.82969741 7.60212517 131.48003197 C7.59944763 133.45414349 7.62149085 135.42824032 7.64431763 137.40222168 C7.56437334 147.07952072 7.56437334 147.07952072 4.58753967 150.78031921 C1.41221429 153.50422285 -0.22140951 154.19622966 -4.3125 154.375 C-5.07175781 154.42398438 -5.83101562 154.47296875 -6.61328125 154.5234375 C-9.34377441 153.92460594 -10.99897836 152.96531232 -12.92675209 150.93438721 C-15.49622356 146.3032552 -14.69816799 140.45493449 -14.6628418 135.29296875 C-14.67125835 133.8816289 -14.68178498 132.47030029 -14.69425964 131.05899048 C-14.72129902 127.23242696 -14.71660997 123.40651565 -14.70455909 119.57989883 C-14.69742504 116.38394383 -14.70592875 113.18810924 -14.71446449 109.99216366 C-14.7344131 102.45267317 -14.72885117 94.9134998 -14.70678711 87.37402344 C-14.68441694 79.59785417 -14.70202998 71.82251479 -14.73983639 64.04642391 C-14.77107026 57.36683039 -14.77898659 50.68749378 -14.76788265 44.00783634 C-14.76139547 40.01972503 -14.76339781 36.03209273 -14.78720665 32.04403687 C-14.80845371 28.29423594 -14.8004898 24.54560642 -14.77011299 20.79587936 C-14.76378379 19.42085973 -14.76765117 18.0457492 -14.78252411 16.67079544 C-14.88555699 6.30464524 -14.88555699 6.30464524 -12.68950844 3.06932068 C-8.37116111 -0.66860437 -5.38703267 -0.7695761 0 0 Z " transform="translate(1388,318)" style="fill: #C42321;"/><path d="M0 0 C21.78 0 43.56 0 66 0 C64.02758777 5.91723669 62.02276326 11.79721009 59.8828125 17.65234375 C59.58916306 18.4581337 59.29551361 19.26392365 58.9929657 20.09413147 C58.03885756 22.70927924 57.08228303 25.32351284 56.125 27.9375 C55.79696381 28.8339624 55.46892761 29.7304248 55.13095093 30.65405273 C50.43875448 43.46684986 45.67863399 56.25222788 40.8125 69 C40.41118866 70.05439774 40.41118866 70.05439774 40.00177002 71.13009644 C37.18949879 78.50999515 34.29818749 85.8211289 31 93 C28.507801 90.507801 28.1879928 88.68388489 27.2578125 85.2890625 C26.91999756 84.0817749 26.58218262 82.8744873 26.23413086 81.63061523 C26.05429657 80.9798703 25.87446228 80.32912537 25.68917847 79.65866089 C22.12220471 66.80100068 18.17693486 54.08850132 13.9375 41.4375 C13.68313171 40.67796021 13.42876343 39.91842041 13.16668701 39.13586426 C9.68060469 28.75503645 6.07913841 18.42004901 2.23413086 8.16577148 C0 2.18942628 0 2.18942628 0 0 Z " transform="translate(1259,340)" style="fill: #FEFEFD;"/><path d="M0 0 C3.5386994 1.65139305 4.81070153 2.71605229 7 6 C7.24723816 8.10990906 7.24723816 8.10990906 7.24291992 10.5925293 C7.24595123 11.53479874 7.24898254 12.47706818 7.25210571 13.44789124 C7.24496552 14.47957932 7.23782532 15.5112674 7.23046875 16.57421875 C7.23039322 18.20495583 7.23039322 18.20495583 7.23031616 19.86863708 C7.22666431 23.47503462 7.20761893 27.0811593 7.1875 30.6875 C7.17993968 33.20100818 7.17270126 35.71451735 7.16577148 38.22802734 C7.09949893 56.19534731 6.87436596 74.16032627 6.5625 92.125 C6.53329971 93.84473526 6.53329971 93.84473526 6.50350952 95.59921265 C6.39060927 102.04392076 6.24815185 108.48696949 6.07354736 114.93029785 C5.99881277 118.04955217 5.95754117 121.16821434 5.91748047 124.28808594 C5.87205471 126.27281632 5.82539865 128.25751903 5.77734375 130.2421875 C5.77376358 131.14180206 5.77018341 132.04141663 5.76649475 132.96829224 C5.57801212 139.01708579 4.41083577 141.80107494 0 146 C-3.14911479 147.57455739 -5.52008816 147.34799118 -9 147 C-11.97672584 145.22719439 -14.42804007 143.14391985 -16 140 C-16.09003138 136.92921055 -16.11205467 133.88328778 -16.08984375 130.8125 C-16.08605209 129.81275146 -16.08226044 128.81300293 -16.07835388 127.78295898 C-16.00475107 112.92659848 -15.81574167 98.07060123 -15.62768555 83.21533203 C-15.58394508 79.75278831 -15.54230575 76.29023001 -15.50268555 72.82763672 C-15.39665022 63.59898891 -15.27470795 54.37096625 -15.11463356 45.14308167 C-15.03432024 40.44420231 -14.97715643 35.74585313 -14.93929768 31.04644775 C-14.91123747 28.1632068 -14.86289551 25.28056669 -14.80894279 22.39770508 C-14.77830528 20.43654894 -14.77200557 18.47505957 -14.76649475 16.51367188 C-14.55267078 6.92671575 -14.55267078 6.92671575 -11.57641602 3.2265625 C-7.57409833 -0.23227738 -5.28349368 -0.35820296 0 0 Z " transform="translate(60,343)" style="fill: #C42220;"/><path d="M0 0 C0.66 0 1.32 0 2 0 C3.07023431 2.80975059 4.13107539 5.62255491 5.1875 8.4375 C5.47947266 9.20126953 5.77144531 9.96503906 6.07226562 10.75195312 C8.55591328 17.40171942 10.56118648 24.16651044 12.53442383 30.97973633 C14.21940276 36.78500328 15.97857264 42.56740244 17.734375 48.3515625 C18.39732969 50.54290998 19.06008804 52.73431688 19.72265625 54.92578125 C20.74271291 58.29913086 21.76429974 61.6719791 22.79052734 65.04345703 C23.79735117 68.35308718 24.79768611 71.66462057 25.796875 74.9765625 C26.10413513 75.98079254 26.41139526 76.98502258 26.72796631 78.01968384 C28.22583785 83.00545624 29.57059211 87.80027688 30 93 C27.93726115 95.06273885 23.66720467 94.39956889 20.8203125 94.53515625 C19.97894745 94.57813339 19.1375824 94.62111053 18.27072144 94.66539001 C16.47340299 94.75590491 14.6759617 94.84400668 12.87841797 94.92993164 C10.19849045 95.05896167 7.51921148 95.19777507 4.83984375 95.33789062 C-6.78234186 95.92283494 -18.36417438 96.11234705 -30 96 C-29.19771514 90.97638327 -27.49757617 86.27726359 -25.8671875 81.4765625 C-25.22259622 79.56007878 -24.5780673 77.64357409 -23.93359375 75.72705078 C-23.5969873 74.72965881 -23.26038086 73.73226685 -22.91357422 72.70465088 C-17.6426039 57.07481134 -12.43259131 41.44729104 -7.77685547 25.62158203 C-6.23714337 20.42565855 -4.6446271 15.24563082 -3.0625 10.0625 C-2.46986669 8.11594185 -1.87740006 6.16933294 -1.28515625 4.22265625 C-0.85677083 2.81510417 -0.42838542 1.40755208 0 0 Z " transform="translate(997,358)" style="fill: #FBFCFB;"/><path d="M0 0 C3.0190434 1.75299294 5.41511201 3.83022401 7 7 C7.40527892 15.73091175 6.85387976 24.50415912 6.37890625 33.22265625 C6.2471731 35.78529922 6.11584216 38.3479629 5.98486328 40.91064453 C5.91533622 42.25458354 5.84569376 43.59851659 5.77593994 44.94244385 C4.85011992 62.80489055 3.93594414 80.64656443 3.75390625 98.53515625 C3.74023514 99.74130081 3.72656403 100.94744537 3.71247864 102.19013977 C3.65349903 107.88265894 3.62630665 113.57307953 3.64282227 119.26586914 C3.62974265 121.29443805 3.61602733 123.323003 3.6015625 125.3515625 C3.61502213 126.26321671 3.62848175 127.17487091 3.64234924 128.114151 C3.5885345 132.59895465 3.46172693 134.41295457 0.6027832 138.04785156 C-3.17772279 140.88331971 -6.31971396 141.58400757 -11 141 C-14.12656275 139.34246674 -16.39678118 137.20643764 -18 134 C-18.11323425 131.1181407 -18.16391552 128.26153646 -18.16796875 125.37890625 C-18.17206757 124.47624023 -18.17616638 123.57357422 -18.1803894 122.64355469 C-18.19012752 119.6164998 -18.18988234 116.58956862 -18.1875 113.5625 C-18.18789276 112.52044403 -18.18828552 111.47838806 -18.18869019 110.40475464 C-18.18040182 91.77833421 -17.71109839 73.17673096 -17.0625 54.5625 C-17.01902435 53.30881622 -16.97554871 52.05513245 -16.93075562 50.76345825 C-16.68632215 43.83215768 -16.41923789 36.90225708 -16.12335205 29.97296143 C-16.00968345 27.23338512 -15.91155206 24.49366942 -15.81591797 21.75341797 C-15.75199751 20.24051642 -15.68714186 18.72765391 -15.62109375 17.21484375 C-15.57267334 15.96695068 -15.52425293 14.71905762 -15.47436523 13.43334961 C-14.82623222 8.7423076 -13.47834128 4.6973548 -10.3125 1.0625 C-6.8608483 -0.52339402 -3.67105205 -0.77507817 0 0 Z " transform="translate(722,342)" style="fill: #C42220;"/><path d="M0 0 C2.97672584 1.77280561 5.42804007 3.85608015 7 7 C7.10355813 8.6863484 7.14383752 10.37674323 7.15390015 12.0662384 C7.16250061 13.13877365 7.17110107 14.2113089 7.17996216 15.31634521 C7.18422211 16.49819397 7.18848206 17.68004272 7.19287109 18.89770508 C7.20104858 20.1384227 7.20922607 21.37914032 7.21765137 22.65745544 C7.24253817 26.77814407 7.25917891 30.89879597 7.2734375 35.01953125 C7.2787971 36.43780715 7.28417461 37.85608298 7.28956985 39.27435875 C7.31119862 45.17375845 7.32993554 51.07315541 7.34119225 56.97258472 C7.35743311 65.42862642 7.39061349 73.88420872 7.44759309 82.34007722 C7.4862873 88.28494488 7.50582426 94.22968964 7.51111281 100.17467993 C7.51476704 103.72579607 7.52679444 107.27642226 7.55921555 110.82740211 C7.59487412 114.78977583 7.59092656 118.75157255 7.58349609 122.71411133 C7.59990143 123.88988739 7.61630676 125.06566345 7.63320923 126.27706909 C7.565097 135.1283197 7.565097 135.1283197 4.58853149 138.20536804 C0.47356686 141.05827791 -3.01521758 141.87854403 -8 141 C-10.69105198 138.82425584 -12.45532928 137.08934144 -14 134 C-14.10349621 132.3285668 -14.14383289 130.65305874 -14.15390015 128.97845459 C-14.16250061 127.91577866 -14.17110107 126.85310272 -14.17996216 125.75822449 C-14.18422211 124.58729752 -14.18848206 123.41637054 -14.19287109 122.20996094 C-14.20104858 120.98060318 -14.20922607 119.75124542 -14.21765137 118.4846344 C-14.24253969 114.40121794 -14.25918066 110.31783856 -14.2734375 106.234375 C-14.27879732 104.82850386 -14.28417483 103.42263279 -14.28956985 102.01676178 C-14.3112003 96.16797652 -14.3299363 90.31919402 -14.34119225 84.47037888 C-14.35742647 76.08991043 -14.39058879 67.70990601 -14.44759309 59.32961249 C-14.48631089 53.43653348 -14.50582715 47.54357847 -14.51111281 41.6503756 C-14.51476425 38.13108352 -14.52676178 34.61228631 -14.55921555 31.09313202 C-14.59492565 27.1644891 -14.59092057 23.23642691 -14.58349609 19.30761719 C-14.59990143 18.14478714 -14.61630676 16.98195709 -14.63320923 15.78388977 C-14.56509332 6.98980459 -14.56509332 6.98980459 -11.58853149 3.29327393 C-7.61824131 -0.22415013 -5.31240338 -0.53124034 0 0 Z " transform="translate(765,341)" style="fill: #C52422;"/><path d="M0 0 C30.45133256 -0.1899373 30.45133256 -0.1899373 42.125 0.4375 C42.86790283 0.47673584 43.61080566 0.51597168 44.3762207 0.55639648 C48.00164181 0.77926898 51.45033855 1.25164158 55 2 C54.35719867 30.69877076 52.63393053 59.34421339 51 88 C47.88476752 85.10856051 45.74498975 82.2098732 43.6015625 78.546875 C42.96428223 77.46462646 42.32700195 76.38237793 41.67041016 75.26733398 C40.9884259 74.09499452 40.30662705 72.92254719 39.625 71.75 C38.91374342 70.53624967 38.20198509 69.32279324 37.48974609 68.10961914 C36.03127114 65.62283015 34.57656366 63.1338957 33.125 60.64306641 C31.1538904 57.26119721 29.17184811 53.88584008 27.1875 50.51171875 C20.67327469 39.41735774 14.26131639 28.27447745 8.08740234 16.98681641 C7.00721948 15.01319087 5.91985862 13.04363852 4.83203125 11.07421875 C4.1791555 9.88310395 3.52677944 8.69171506 2.875 7.5 C2.31554687 6.4790625 1.75609375 5.458125 1.1796875 4.40625 C0 2 0 2 0 0 Z " transform="translate(340,356)" style="fill: #FEFCFB;"/><path d="M0 0 C0.66 0 1.32 0 2 0 C31.95147652 58.85442956 31.95147652 58.85442956 39 80 C24.15 80 9.3 80 -6 80 C-6 67.625 -6 67.625 -5.44921875 61.41723633 C-5.39069733 60.74263367 -5.3321759 60.06803101 -5.2718811 59.37298584 C-5.08159672 57.19224344 -4.88463895 55.01216366 -4.6875 52.83203125 C-4.55256064 51.30079259 -4.41804658 49.76951639 -4.28393555 48.23820496 C-3.93305714 44.24472394 -3.57647591 40.25177284 -3.21862793 36.25891113 C-2.8531848 32.16966164 -2.49324327 28.07992816 -2.1328125 23.99023438 C-1.42720143 15.99301096 -0.71555357 7.99633992 0 0 Z " transform="translate(281,388)" style="fill: #FBFCFC;"/></svg>